<?xml version="1.0" encoding="UTF-8"?>
<!DOCTYPE svg PUBLIC "-//W3C//DTD SVG 1.1//EN" "http://www.w3.org/Graphics/SVG/1.1/DTD/svg11.dtd">
<!-- Creator: CorelDRAW X8 -->
<svg xmlns="http://www.w3.org/2000/svg" xml:space="preserve" width="18px" height="18px" version="1.1" style="shape-rendering:geometricPrecision; text-rendering:geometricPrecision; image-rendering:optimizeQuality; fill-rule:evenodd; clip-rule:evenodd"
viewBox="0 0 18000 18000"
 xmlns:xlink="http://www.w3.org/1999/xlink">
 <defs>
  <style type="text/css">
   <![CDATA[
    .fil0 {fill:white;fill-rule:nonzero}
   ]]>
  </style>
 </defs>
 <g id="Layer_x0020_1">
  <metadata id="CorelCorpID_0Corel-Layer"/>
  <path class="fil0" d="M13832 8849l0 3364 -1950 0 0 -3138c0,-789 -282,-1327 -987,-1327 -539,0 -860,363 -1001,714 -51,125 -65,299 -65,475l0 3276 -1950 0c0,0 26,-5316 0,-5866l1950 0 0 831c-4,7 -9,13 -12,20l12 0 0 -20c260,-398 722,-969 1758,-969 1284,0 2245,839 2245,2640zm-4832 -8849c2485,0 4736,1007 6364,2636 1629,1628 2636,3879 2636,6364 0,2485 -1007,4736 -2636,6364 -1628,1629 -3879,2636 -6364,2636 -2485,0 -4736,-1007 -6364,-2636 -1629,-1628 -2636,-3879 -2636,-6364 0,-2485 1007,-4736 2636,-6364 1628,-1629 3879,-2636 6364,-2636zm5571 3429c-1425,-1426 -3395,-2308 -5571,-2308 -2176,0 -4146,882 -5571,2308 -1426,1425 -2308,3395 -2308,5571 0,2176 882,4146 2308,5571 1425,1426 3395,2308 5571,2308 2176,0 4146,-882 5571,-2308 1426,-1425 2308,-3395 2308,-5571 0,-2176 -882,-4146 -2308,-5571zm-8733 91c-667,0 -1103,438 -1103,1013 0,563 424,1014 1078,1014l13 0c680,0 1103,-451 1103,-1014 -13,-575 -423,-1013 -1091,-1013zm-987 8693l1950 0 0 -5866 -1950 0 0 5866z"/>
 </g>
</svg>
