<?xml version="1.0" encoding="UTF-8"?>
<!DOCTYPE svg PUBLIC "-//W3C//DTD SVG 1.1//EN" "http://www.w3.org/Graphics/SVG/1.1/DTD/svg11.dtd">
<!-- Creator: CorelDRAW X8 -->
<svg xmlns="http://www.w3.org/2000/svg" xml:space="preserve" width="108px" height="149px" version="1.1" style="shape-rendering:geometricPrecision; text-rendering:geometricPrecision; image-rendering:optimizeQuality; fill-rule:evenodd; clip-rule:evenodd"
viewBox="0 0 108000 149001"
 xmlns:xlink="http://www.w3.org/1999/xlink">
 <defs>
  <style type="text/css">
   <![CDATA[
    .fil0 {fill:none;fill-rule:nonzero}
    .fil1 {fill:#00CDFF;fill-rule:nonzero}
   ]]>
  </style>
 </defs>
 <g id="Layer_x0020_1">
  <metadata id="CorelCorpID_0Corel-Layer"/>
  <g id="_2581194128528">
   <path class="fil0" d="M49627 31332c-1757,0 -3181,1424 -3181,3181 0,1756 1424,3181 3181,3181 1756,0 3180,-1425 3180,-3181 10,-1747 -1398,-3172 -3144,-3181 -12,0 -24,0 -36,0z"/>
   <path class="fil0" d="M65115 55153c747,5 1486,165 2169,469l3615 -5584c-1963,-1112 -4179,-1698 -6435,-1699 -1588,-2 -3164,292 -4644,868l3741 6217c501,-171 1025,-262 1554,-271z"/>
   <path class="fil0" d="M33830 62599c-1756,-10 -3189,1406 -3199,3163 -9,1756 1407,3188 3163,3198 1757,10 3189,-1406 3199,-3162 0,-6 0,-12 0,-18 0,-1750 -1413,-3171 -3163,-3181z"/>
   <path class="fil0" d="M18667 36591c-1757,-10 -3189,1406 -3199,3163 -10,1756 1406,3189 3163,3199 1756,10 3189,-1406 3199,-3163 0,-6 0,-12 0,-18 0,-1750 -1414,-3171 -3163,-3181z"/>
   <path class="fil0" d="M61952 60520c0,1757 1424,3181 3181,3181 1757,0 3181,-1424 3181,-3181 0,-1757 -1424,-3181 -3181,-3181 -6,0 -12,1 -18,1 -1747,0 -3163,1415 -3163,3162 0,6 0,13 0,18z"/>
   <path class="fil0" d="M54000 4420c-26621,-10 -48210,21563 -48220,48184 -9,26621 21563,48210 48184,48220 26621,9 48210,-21563 48220,-48184 0,-6 0,-12 0,-18 -30,-26602 -21582,-48162 -48184,-48202zm31881 29550l0 0c-457,-4 -913,-65 -1355,-180l-9254 14458c7225,5956 8255,16640 2300,23865 -160,194 -324,384 -492,571l7500 7771 -2602 2512 -7573 -7861c-7524,5622 -18181,4082 -23804,-3442 -5623,-7523 -4082,-18181 3441,-23804 390,-291 792,-566 1205,-822l-4391 -7230c-421,101 -851,155 -1284,163l-542 0 -11277 22176c2070,2163 1995,5595 -168,7666 -2163,2071 -5595,1996 -7666,-167 -1968,-2055 -2012,-5282 -101,-7391l-9905 -17224c-406,109 -825,164 -1246,163 -2994,40 -5454,-2355 -5494,-5349 -40,-2994 2355,-5454 5350,-5494 2994,-40 5453,2355 5493,5350 21,1533 -610,3004 -1734,4047l9759 16989c1092,-396 2288,-396 3380,0l11097 -21814c-2471,-1692 -3103,-5066 -1411,-7537 1692,-2471 5066,-3103 7537,-1411 2471,1691 3102,5066 1411,7536 -221,323 -475,620 -760,887l4392 7230c4970,-2173 10683,-1816 15344,958l9037 -14206c-2156,-2079 -2219,-5511 -141,-7667 2078,-2156 5511,-2219 7667,-141 2155,2078 2219,5511 141,7667 -1028,1066 -2446,1665 -3926,1659l72 72z"/>
   <path class="fil0" d="M73067 51628l-3614 5712c698,913 1079,2030 1084,3180 120,2993 -2208,5515 -5200,5635 -2993,120 -5515,-2208 -5635,-5200 -61,-1511 512,-2980 1581,-4049l-3849 -6416c-6013,3900 -7725,11935 -3826,17948 3900,6013 11936,7726 17948,3826 6013,-3900 7727,-11936 3826,-17949 -632,-975 -1392,-1860 -2261,-2632l-54 -55z"/>
   <path class="fil0" d="M85881 25440c-1756,-10 -3189,1406 -3198,3163 -10,1756 1406,3188 3162,3198 1757,10 3189,-1406 3199,-3162 0,-6 0,-12 0,-18 0,-1750 -1413,-3171 -3163,-3181z"/>
   <path class="fil1" d="M54000 -26c-29077,0 -52648,23572 -52648,52648 0,20204 11383,37747 28083,46573 324,-1711 1746,-3037 3508,-3213 -16073,-7810 -27156,-24289 -27163,-43360 -10,-26621 21563,-48210 48184,-48219 26621,-10 48209,21562 48220,48184 0,11 0,23 0,35 -29,18713 -10707,34928 -26299,42910l2116 -22 7 3979c17005,-8729 28640,-26439 28640,-46867 -30,-29064 -23584,-52618 -52648,-52648z"/>
   <path class="fil1" d="M80625 28854c41,1346 581,2628 1516,3598l-9037 14206c-4669,-2822 -10415,-3206 -15417,-1030l-4392 -7230c2203,-2028 2344,-5459 315,-7661 -2029,-2202 -5458,-2344 -7661,-315 -2203,2029 -2344,5459 -315,7662 271,294 573,557 902,785l-11097 21814c-1092,-397 -2288,-397 -3380,0l-9760 -16862c2196,-2037 2325,-5467 289,-7663 -2036,-2195 -5467,-2325 -7662,-289 -2196,2036 -2325,5467 -289,7663 1043,1124 2514,1755 4048,1734 421,1 840,-54 1247,-162l9904 17224c-2011,2218 -1842,5647 377,7658 2219,2011 5647,1843 7658,-376 1911,-2109 1867,-5335 -101,-7391l11333 -22339 542 0c432,-7 862,-62 1283,-162l4392 7229c-7978,4958 -10427,15444 -5469,23422 4957,7977 15443,10426 23421,5468 413,-257 815,-530 1205,-822l7573 7862 2602 -2512 -7536 -7735c6463,-7168 5628,-18299 -1807,-24436l9253 -14458c1442,377 3109,109 4338,-790 1349,-987 2195,-2701 2159,-4342 -150,-6892 -10660,-7244 -10434,250zm-61958 14153l0 0c-1757,10 -3189,-1406 -3199,-3162 -10,-1757 1406,-3190 3163,-3199 1756,-11 3189,1405 3199,3162 0,12 0,24 0,37 0,1746 -1416,3162 -3163,3162zm15163 25936l0 0c-1756,10 -3188,-1407 -3199,-3163 -9,-1757 1407,-3189 3163,-3199 1757,-10 3189,1406 3199,3163 0,12 0,24 0,36 -10,1742 -1420,3153 -3163,3163zm15797 -31268l0 0c-1757,0 -3181,-1424 -3181,-3181 0,-1757 1424,-3180 3181,-3180 1756,0 3180,1423 3180,3180 0,6 0,13 0,19 0,1746 -1415,3162 -3162,3162 -6,0 -12,0 -18,0zm21254 12363l-3615 5584c-683,-304 -1421,-464 -2169,-469 -535,7 -1065,99 -1572,271l-3724 -6181c3627,-1443 7675,-1135 11080,795zm-2567 10482l0 0c0,1757 -1424,3181 -3181,3181 -1757,0 -3181,-1424 -3181,-3181 0,-1757 1424,-3180 3181,-3180 1750,9 3163,1430 3163,3180l18 0zm-3810 13812c-7166,22 -12994,-5770 -13016,-12937 -13,-4409 2213,-8523 5909,-10924l3850 6417c-2096,2138 -2061,5571 78,7667 2138,2096 5571,2061 7667,-77 1892,-1931 2073,-4960 424,-7102l3615 -5712c8765,7741 3637,22631 -8527,22668zm21396 -42531l0 0c-1757,11 -3189,-1406 -3200,-3162 -9,-1757 1407,-3189 3163,-3199 4222,-24 4240,6361 18,6361l19 0z"/>
   <path class="fil0" d="M80152 138037l-1337 -235 289 -1337c338,-1877 338,-3799 0,-5676l0 -524 289 -433c1162,-1525 2043,-3245 2603,-5079l108 -470 362 -289c505,-407 977,-854 1409,-1338l-1536 579 0 -5693 -108 -4428c-50,-81 -92,-166 -127,-253 -945,-330 -1710,-1037 -2114,-1952 -226,-12 -448,52 -633,181l-488 289 -542 -127c-997,-276 -1851,-922 -2386,-1807 -1066,0 -2711,-199 -4121,-181 768,111 1379,701 1518,1464l344 362 0 524 127 5060 0 2422c612,129 1151,492 1500,1012 1138,1807 -941,3976 -2025,4988 -548,1876 -1371,3661 -2440,5296 222,1671 270,3361 145,5042 4934,1519 11440,5531 11983,8151 184,910 251,1839 199,2766l9253 0c55,-696 6,-1397 -144,-2078 -579,-1284 -6959,-5170 -12128,-6236z"/>
   <path class="fil1" d="M94864 143622c-632,-2729 -7952,-6543 -12904,-7934 134,-1603 86,-3216 -145,-4808 1100,-1572 1953,-3303 2530,-5133 1913,-1594 4334,-5451 579,-5946l0 -2313c-6,-1675 886,-7023 -2006,-7302 -623,-239 -751,-3222 -4320,-1825 -3151,-2890 -3502,-2330 -9651,-1519 -352,110 -691,256 -1013,434l-180 0c-804,-927 -263,-1428 -1482,-1627 -6213,-916 -10503,-362 -12742,6417 -497,2378 -558,4828 -181,7229 -1274,573 -1553,2309 -1011,3488 339,1101 1099,2023 2114,2567 939,1968 2052,3849 3325,5620 -74,1451 -74,2905 0,4356 -2982,904 -9036,3615 -11386,6037 -724,622 -1172,1506 -1247,2458 -135,1334 -135,2678 0,4012l145 1193 49340 0 235 -1048c300,-1437 300,-2920 0,-4356zm-47099 2693c-53,-795 -53,-1592 0,-2386 325,-1807 9452,-6000 11350,-6199l1482 0c-210,-2429 -297,-4691 -127,-7139l-397 -1030c-1386,-1828 -2561,-3804 -3506,-5892l-308 -651 -723 -127c-279,0 -613,-690 -723,-939l1410 379 -199 -2313c-308,-2315 -308,-4661 0,-6977 1850,-5113 4163,-5445 9145,-4735 485,877 1297,1527 2260,1808l1102 -181c115,-89 253,-145 398,-163 341,902 1042,1621 1933,1988 0,1393 211,3358 253,4880l0 5838 1464 -579c-413,523 -873,1007 -1373,1446 -1126,2427 -1585,3992 -3019,6417 0,3170 418,4215 -253,7662l1284 290c4753,1102 10735,5133 11169,6398 137,726 179,1467 127,2205 -10917,0 -21833,0 -32749,0zm44605 0l0 0 -9254 0c53,-927 -14,-1856 -198,-2765 -543,-2621 -7049,-6633 -11983,-8152 125,-1681 76,-3371 -145,-5042 1061,-1608 1883,-3362 2440,-5205 1084,-1013 3163,-3163 2024,-4989 -349,-520 -887,-883 -1500,-1012l0 -2422 -126 -5060 -344 -976c-139,-763 -750,-1352 -1518,-1464 1410,0 3054,0 4121,181 535,885 1388,1532 2385,1807l543 127 488 -290c185,-129 407,-192 632,-181 1937,4388 2142,-1843 2350,6633l0 5694 1536 -579c-433,484 -904,931 -1409,1338l-470 759c-569,1865 -1626,4102 -3019,5495 0,3206 472,4015 -289,7536l1337 289c5169,1066 11549,4952 12074,6199 211,673 321,1374 325,2079z"/>
   <polygon class="fil1" points="41764,145375 29457,145375 29457,95908 35873,95908 35764,87323 70230,87323 70230,96920 67519,96920 67519,90034 38511,90034 38620,98619 32168,98619 32168,142664 41764,142664 "/>
   <polygon class="fil1" points="78647,103354 75888,103354 75888,98185 42777,98185 42777,95425 78647,95425 "/>
   <polygon class="fil1" points="37590,106968 43699,106968 43699,109680 37590,109680 "/>
   <polygon class="fil1" points="47168,106968 51705,106968 51705,109680 47168,109680 "/>
   <polygon class="fil1" points="37590,114993 44367,114993 44367,117704 37590,117704 "/>
   <polygon class="fil1" points="47168,114993 51018,114993 51018,117704 47168,117704 "/>
   <polygon class="fil1" points="37590,123018 44367,123018 44367,125729 37590,125729 "/>
   <polygon class="fil1" points="47168,123018 51705,123018 51705,125729 47168,125729 "/>
   <polygon class="fil1" points="37590,130573 44367,130573 44367,133284 37590,133284 "/>
   <polygon class="fil1" points="47168,130862 53115,130862 53115,133573 47168,133573 "/>
  </g>
 </g>
</svg>
