<?xml version="1.0" encoding="UTF-8"?>
<!DOCTYPE svg PUBLIC "-//W3C//DTD SVG 1.1//EN" "http://www.w3.org/Graphics/SVG/1.1/DTD/svg11.dtd">
<!-- Creator: CorelDRAW X8 -->
<svg xmlns="http://www.w3.org/2000/svg" xml:space="preserve" width="108px" height="149px" version="1.1" style="shape-rendering:geometricPrecision; text-rendering:geometricPrecision; image-rendering:optimizeQuality; fill-rule:evenodd; clip-rule:evenodd"
viewBox="0 0 108000 149001"
 xmlns:xlink="http://www.w3.org/1999/xlink">
 <defs>
  <style type="text/css">
   <![CDATA[
    .fil1 {fill:none;fill-rule:nonzero}
    .fil0 {fill:#00CDFF;fill-rule:nonzero}
   ]]>
  </style>
 </defs>
 <g id="Layer_x0020_1">
  <metadata id="CorelCorpID_0Corel-Layer"/>
  <path class="fil0" d="M34652 103750c-19990,-7757 -34160,-27179 -34152,-49909 10,-29547 23971,-53492 53518,-53482 29540,10 53482,23960 53482,53500 -30,22730 -14215,42137 -34211,49891l-38637 0zm37611 -28128l0 -1379 6166 -2375 0 1632 -4171 1396 4171 1415 0 1632 -6166 -2321zm11625 743l4171 -1414 -4171 -1397 0 -1631 6166 2375 0 1378 -6166 2376 0 -1687zm-2122 -6635l1389 0c-896,3977 -1794,7956 -2704,11929l-1544 0c922,-3975 1844,-7952 2760,-11929l99 0zm-581 -8471c-1028,-2 -2030,111 -2994,324l-6346 -3190c577,-1876 461,-3897 -326,-5694 -937,-2110 -3152,-3351 -5441,-3047l3464 -9068c2931,-1559 3898,-6428 508,-7255 0,-3156 568,-7096 -2466,-9194 -227,-156 -434,-339 -617,-544 63,-1235 294,-2456 689,-3627l-2067 -1179c-455,623 -1021,1158 -1669,1578 -49,-55 -92,-116 -127,-182 -1266,-4943 -15912,-3768 -16412,-1396 -69,374 -428,622 -802,554 -1878,-355 -3749,1653 -3478,3599 -461,7 -921,-60 -1360,-200l-454 -145 -381 182c-1285,614 -2148,1863 -2266,3282l0 6946c-535,46 -1049,234 -1488,544 -2866,2268 -162,7632 2485,8161 420,2671 1330,5241 2684,7581 0,181 182,344 254,526 -2847,251 -5357,1970 -6619,4534 -319,1239 -356,2535 -109,3790 -490,326 -998,617 -1488,925 -4924,2599 -8649,7007 -10391,12296l0 8034 44193 0c1834,5414 6954,9314 12988,9322 7583,10 13737,-6128 13747,-13711 0,-6 0,-12 0,-18 -10,-7571 -6140,-13708 -13711,-13728zm-7988 2549c-4214,3009 -6363,8087 -5611,13192l-41442 0 0 -4987c1600,-4692 4944,-8589 9340,-10881 580,-345 1143,-708 1705,-1088 4643,4678 7853,7435 9920,7435 169,19 339,19 508,0l0 2757c-1239,375 -2086,1517 -2086,2811 -129,1647 1103,3087 2751,3216 1647,128 3087,-1104 3216,-2751 12,-155 12,-311 0,-465 -4,-1287 -840,-2424 -2068,-2811l0 -4117c943,-762 1814,-1451 1814,-2648 1852,799 3820,879 5694,109 716,1042 1633,1655 2557,2467l0 1885c-1575,502 -2445,2184 -1945,3759 501,1574 2184,2445 3759,1945 2792,-888 2742,-4831 0,-5704l0 -1232c1940,0 4896,-2141 9213,-6457l4370 2249c-591,405 -1157,845 -1695,1316zm7952 244c6080,-10 11017,4910 11027,10989 0,6 0,13 0,19 0,6072 -4918,10998 -10991,11008l0 0c-6079,10 -11016,-4911 -11026,-10990 -11,-6000 4839,-11016 10990,-11026zm-20838 5694l0 0c651,0 1179,528 1179,1179 -1,651 -529,1178 -1180,1178 -650,-1 -1177,-528 -1177,-1178 0,-651 527,-1179 1178,-1179zm-472 -5712c-417,-345 -906,-780 -1160,-1034 1107,-1687 4824,-8270 6057,-10700 3156,-690 4153,416 4661,1505 630,1591 630,3360 0,4951l0 290c-3942,3822 -6119,5199 -7277,5665 -1313,529 -1286,182 -2281,-677zm-11297 7707l0 0c651,0 1178,528 1178,1179 0,650 -528,1178 -1178,1178 -652,0 -1179,-528 -1179,-1178 0,-7 0,-13 0,-18 0,-641 520,-1161 1160,-1161 7,0 13,0 19,0zm-10156 -13112l0 0 -164 -417c-320,-1021 -320,-2116 0,-3138 1219,-2012 3456,-3180 5804,-3028 2575,4969 5205,10337 5441,11099 290,939 -1433,1814 -2140,2412 -399,290 -1923,145 -8941,-6928zm12078 2340l0 0c-870,-1941 -2339,-4897 -3518,-7255 4937,3254 10241,2944 15106,-290 -1306,2394 -3246,5786 -4280,7526 -2123,1739 -5176,1747 -7308,19zm13456 -21129l0 0c0,675 -4384,554 -4860,454 -1096,-11 -2111,-1664 -2285,-2612 -193,-1233 -496,-1725 127,-2938 858,-338 5582,-109 7181,-109l0 563c46,1549 -9,3100 -163,4642zm-22288 -14708l0 0c1085,271 2226,221 3283,-145l1106 -399 -381 -1088c-228,-430 -274,-933 -127,-1397 200,-233 476,-387 780,-435 1360,205 2683,-543 3210,-1813 1650,-508 8269,-1252 11098,109 490,236 907,494 907,1069 297,871 1051,1506 1959,1651 381,33 764,-16 1124,-145 -105,569 -105,1153 0,1723 291,686 777,1273 1397,1686 2170,1395 1578,4739 1578,6928 -3392,-218 -10410,0 -10501,0 -1083,-11 -2020,751 -2230,1814 -61,177 -110,359 -145,544l-1360 0c-45,-271 -112,-538 -200,-798 -209,-1063 -1147,-1825 -2231,-1814 0,0 -6710,-145 -9993,0l0 -6221c78,-497 337,-949 726,-1269zm9757 12278c-190,976 -1169,2567 -2285,2630 -477,96 -4517,325 -4824,-435 -160,-1573 -202,-3155 -127,-4734l0 -489c2775,0 6003,0 6619,0 163,-21 328,-21 490,0 656,1271 486,1861 127,3028zm-9376 3156l0 0 0 -1506 -1487 291c-653,127 -1197,0 -2013,-2140 -253,-559 -529,-1961 526,-1832l2013 1959 0 -2213c380,127 798,272 1341,417 -116,1614 -19,3236 291,4824 1005,1953 5154,1770 6801,1433 1761,-176 3286,-2250 3645,-3881l127 -453c0,-145 0,-272 109,-399l1432 0c0,217 0,417 145,634l127 454c375,1627 1879,3711 3645,3899 1674,339 5803,528 6820,-1451 309,-1582 407,-3198 290,-4806l1813 -562 109 1215 1705 -852c151,111 261,271 308,453 11,1614 -998,2198 -2267,2757l-4407 11570c-6473,4973 -11034,5289 -17591,326l-145 -308c-1619,-3596 -3137,-5515 -3337,-9829zm11969 -35673l0 0c-27043,0 -48966,21923 -48966,48966 0,27043 21923,48966 48966,48966 27043,0 48967,-21923 48967,-48966 0,-27043 -21924,-48966 -48967,-48966z"/>
  <path class="fil1" d="M81185 63979c-6079,-10 -11016,4910 -11026,10990 -10,6080 4910,11016 10990,11026 6080,10 11017,-4910 11027,-10990 0,-6 0,-12 0,-19 -10,-6067 -4922,-10987 -10991,-11007z"/>
  <polygon class="fil1" points="78211,133674 29880,133674 26924,137936 45567,137900 45586,137247 27831,137247 30061,134254 78175,134254 80134,137247 63322,137247 63322,137864 81185,137827 "/>
  <path class="fil1" d="M48542 74080c651,0 1178,-528 1178,-1178 0,-651 -527,-1179 -1178,-1179 -651,0 -1179,528 -1179,1179 0,650 528,1178 1179,1178z"/>
  <path class="fil1" d="M69234 58955l0 -290c629,-1590 629,-3361 0,-4951 -507,-1088 -1505,-2194 -4661,-1505 -1233,2430 -4951,9067 -6057,10699 254,254 744,690 1161,1034l1069 925c0,0 1560,1052 8488,-5912z"/>
  <path class="fil1" d="M60311 71995c641,10 1169,-502 1179,-1143 0,-5 0,-12 0,-18 1,-651 -527,-1179 -1177,-1180 -651,-1 -1180,527 -1180,1178l0 2c-1,641 519,1161 1160,1161 6,0 12,0 18,0z"/>
  <path class="fil1" d="M47254 65557l1052 -889c1070,-871 1179,-1015 1088,-1523 -90,-508 -2793,-6130 -5441,-11099 -2348,-152 -4584,1016 -5803,3028 -320,1021 -320,2116 0,3137l163 418c7091,7072 8615,7218 8941,6928z"/>
  <path class="fil1" d="M57772 60950c1034,-1813 2974,-5132 4280,-7526 -2346,1581 -5066,2519 -7888,2720 -2587,-130 -5092,-950 -7255,-2376 1179,2304 2648,5260 3519,7255 2152,1732 5228,1702 7344,-73z"/>
  <path class="fil1" d="M50827 34418c-617,0 -3845,0 -6620,0l0 489c-75,1579 -33,3161 127,4734 0,0 0,109 653,272l544 163c1197,241 2430,241 3627,0 551,-31 1049,-338 1324,-816l182 -200c394,-462 663,-1018 779,-1614l146 -472c226,-582 226,-1230 0,-1813 -55,-188 -129,-370 -218,-544 -170,-94 -354,-161 -544,-199z"/>
  <path class="fil1" d="M61236 66772l0 1160c1575,502 2446,2184 1945,3759 -501,1574 -2183,2445 -3758,1944 -1576,-500 -2446,-2183 -1945,-3757 294,-926 1019,-1651 1945,-1946l0 -1958 -744 -653c-710,-488 -1325,-1103 -1813,-1814 -847,348 -1751,533 -2666,544 -1042,-18 -2071,-240 -3028,-652 0,1196 -835,1813 -1814,2647l0 3990c1228,387 2063,1524 2068,2811 128,1648 -1104,3088 -2751,3216 -1648,128 -3088,-1103 -3216,-2751 -12,-155 -12,-310 0,-465 0,-1294 847,-2435 2085,-2811l0 -2702c-168,19 -339,19 -508,0 -2067,0 -5277,-2757 -9920,-7436 -562,381 -1124,744 -1705,1088 -4395,2293 -7740,6190 -9339,10882l0 5132 41566 0c-182,-3809 930,-7567 3156,-10664 1156,-1488 2539,-2785 4099,-3844l-4462 -2176c-4316,4316 -7272,6420 -9195,6456z"/>
  <path class="fil1" d="M45495 50359l145 308c1415,1107 5060,3628 8524,3628 3464,0 7616,-2812 9067,-3954l4407 -11571 454 -199c1090,-375 1821,-1404 1813,-2557 -47,-183 -156,-343 -308,-454l-1705 853 -145 -1125 -1813 562c117,1608 19,3224 -291,4806 -359,699 -1035,1180 -1813,1288l-490 145c-698,187 -1419,272 -2140,254 -798,2 -1594,-77 -2376,-236 -951,-101 -1805,-628 -2321,-1432l-181 -200c-558,-653 -950,-1430 -1142,-2267l-127 -453c0,-218 -110,-417 -146,-635l-1432 0c0,127 0,254 -109,399l-127 453c-185,839 -578,1619 -1142,2267l-164 182c-520,809 -1382,1336 -2340,1432 -781,161 -1577,239 -2375,236 -779,18 -1556,-86 -2303,-308l-490 -145c-777,-99 -1455,-574 -1814,-1270 -309,-1588 -407,-3210 -290,-4824 -544,-145 -961,-290 -1342,-417l0 2213 -2013 -1959c-194,-24 -388,43 -526,181 -290,272 -254,889 0,1651 816,2194 1360,2267 2013,2140l1487 -291 0 1505c176,2722 1023,5358 2467,7672 508,689 762,1396 1088,2122z"/>
  <path class="fil1" d="M51026 32604c1084,-12 2022,750 2231,1814 88,260 155,527 200,797l1359 0c36,-184 85,-366 146,-543 209,-1064 1147,-1826 2230,-1814 0,0 7109,-218 10501,0l0 -599c140,-1671 17,-3353 -363,-4987 -279,-547 -698,-1011 -1215,-1342 -621,-413 -1106,-1000 -1397,-1687 -105,-569 -105,-1153 0,-1722 -360,129 -743,178 -1124,145 -908,-146 -1661,-781 -1959,-1651l0 -218c0,-308 -381,-598 -907,-852 -2829,-1360 -9448,-616 -11098,-109 -527,1270 -1850,2019 -3210,1814 -304,48 -580,202 -780,435 -147,464 -101,967 127,1397l381 1088 -1106 399c-1063,369 -2210,420 -3301,145 -343,339 -555,789 -599,1269l0 6293c3174,-217 9794,-72 9884,-72z"/>
  <path class="fil0" d="M38531 117570l0 -2394 10718 -4117 0 2829 -7254 2431 0 108 7254 2430 0 2830 -10718 -4117zm46681 19622l-3482 -4842c332,-499 509,-1086 508,-1686l0 -27530c0,-1663 -1348,-3011 -3012,-3011l-50198 0c-1659,10 -3001,1352 -3011,3011l0 27530c5,551 162,1091 453,1559l-3319 4933c-881,1279 -560,3029 719,3910 466,322 1018,495 1585,497l57671 -127c1483,-4 2680,-1209 2676,-2692 -2,-556 -177,-1099 -500,-1552l-90 0zm-55568 -33442l0 0 48966 0 0 26297 -48966 0 0 -26297zm-2738 34132l2956 -4262 48349 0 2974 4207c-18308,0 -35694,55 -54279,55zm31846 -19025l7254 -2430 0 -108 -7254 -2431 0 -2829 10718 4117 0 2394 -10718 4117 0 -2830zm-3700 -11298l2231 0 -4697 20221 -2231 0 4697 -20221z"/>
 </g>
</svg>
