<?xml version="1.0" encoding="UTF-8"?>
<!DOCTYPE svg PUBLIC "-//W3C//DTD SVG 1.1//EN" "http://www.w3.org/Graphics/SVG/1.1/DTD/svg11.dtd">
<!-- Creator: CorelDRAW X8 -->
<svg xmlns="http://www.w3.org/2000/svg" xml:space="preserve" width="108px" height="149px" version="1.1" style="shape-rendering:geometricPrecision; text-rendering:geometricPrecision; image-rendering:optimizeQuality; fill-rule:evenodd; clip-rule:evenodd"
viewBox="0 0 108000 149001"
 xmlns:xlink="http://www.w3.org/1999/xlink">
 <defs>
  <style type="text/css">
   <![CDATA[
    .fil0 {fill:#33CCFF;fill-rule:nonzero}
   ]]>
  </style>
 </defs>
 <g id="Layer_x0020_1">
  <metadata id="CorelCorpID_0Corel-Layer"/>
  <path class="fil0" d="M102819 53840c0,-13482 -5465,-25686 -14299,-34521 -8834,-8834 -21039,-14298 -34520,-14298 -13481,0 -25686,5464 -34520,14298 -8834,8835 -14299,21039 -14299,34521 0,13481 5465,25686 14299,34520 4897,4897 10831,8758 17443,11227l14869 0 -152 -56018 -4344 0 0 9c-693,0 -1320,-281 -1774,-735 -449,-449 -725,-1076 -726,-1774l-9 0 0 -2733c-2128,1198 -4619,3018 -5966,5466l-27 46c-789,1360 -1394,2819 -1802,4335 -241,893 -412,1808 -511,2735l1845 0c693,0 1320,281 1775,735l-5 5c457,459 740,1085 740,1770l-10 0 0 9550 10 0c0,693 -281,1320 -735,1774 -455,455 -1082,735 -1774,735l-8559 0c-684,0 -1310,-282 -1769,-740l-5 5c-454,-454 -735,-1082 -735,-1774l0 -9550c0,-683 281,-1307 736,-1765l9 -10c458,-454 1082,-735 1764,-735l2011 0c115,-1332 348,-2651 696,-3942 508,-1886 1263,-3711 2251,-5422l-1 -1c1202,-2186 3014,-3969 4882,-5372l-5110 0 0 2902 9 0c0,694 -281,1321 -735,1775 -454,454 -1081,735 -1774,735l0 -9 -8558 0 0 9c-693,0 -1320,-281 -1774,-735 -449,-449 -725,-1076 -726,-1774l-9 0 9 -1 0 -9550c1,-691 279,-1317 731,-1769l-5 -5c454,-454 1082,-735 1774,-735l8558 0c692,0 1320,281 1774,735 454,454 735,1081 735,1774l-9 0 0 2903 10290 0 0 -4869c0,-683 280,-1307 735,-1765l9 -9c458,-455 1082,-735 1765,-735l13502 0c682,0 1306,280 1765,735l9 9c454,458 735,1082 735,1765l0 4401 10205 0 0 -2435c0,-685 283,-1311 740,-1769l-4 -5c454,-454 1081,-735 1774,-735l8558 0c693,0 1320,281 1774,735 454,454 735,1081 735,1774l-9 0 0 9550 9 0c0,694 -281,1321 -735,1775 -455,454 -1082,735 -1774,735l0 -9 -8558 0 0 9c-693,0 -1320,-281 -1774,-735 -455,-455 -736,-1082 -736,-1774l0 -2435 -4144 0c496,454 995,951 1492,1497l73 92c1639,1992 2965,4198 3947,6541 819,1955 1401,4017 1728,6139l1624 0c682,0 1306,281 1764,735l10 10c454,458 735,1082 735,1765l-9 0 0 9550 9 0c0,693 -281,1320 -735,1774 -455,455 -1082,735 -1774,735l-8558 0c-693,0 -1320,-280 -1775,-735 -454,-454 -735,-1082 -735,-1774l0 -9550c0,-685 283,-1311 740,-1770l-5 -5c455,-454 1082,-735 1775,-735l2197 0c-282,-1490 -721,-2947 -1307,-4347 -795,-1899 -1857,-3679 -3160,-5280l-1 1c-1463,-1609 -2880,-2662 -4096,-3351l0 3128c0,692 -281,1319 -735,1774l-5 -5c-459,457 -1084,740 -1769,740l0 -9 -4495 0 152 56018 14622 0c6612,-2469 12546,-6330 17443,-11227 8834,-8834 14299,-21039 14299,-34520zm-66656 1760l-4222 0 0 5206 4222 0 0 -5206zm-6329 -23895l-4232 0 0 5215 4232 0 0 -5215zm46234 23895l-4222 0 0 5206 4222 0 0 -5206zm6349 -23895l-4223 0 0 5215 4222 0 1 -5215zm-23792 -1966l-9157 0 0 9166 9157 0 0 -9166zm-11647 98630l14044 0c72,0 143,3 214,9l6696 0 0 -6189 -27593 0 1 6189 6425 0c70,-6 141,-9 213,-9zm16526 4672l0 6976 9 0c0,687 -280,1310 -730,1761 -451,451 -1073,729 -1761,729l0 -9 -14044 0c-694,-1 -1316,-276 -1761,-720 -451,-451 -730,-1074 -730,-1761l9 0 0 -6975 -6338 0c-694,-1 -1316,-276 -1761,-721 -451,-451 -730,-1073 -730,-1761l9 0 0 -8371 -9 0 0 -2209 0 -6377 -4456 -37 37 -4663 4419 37 0 -4824c-7399,-2699 -14036,-6985 -19497,-12446 -9682,-9682 -15670,-23057 -15670,-37830 0,-14774 5988,-28149 15670,-37831 9682,-9681 23057,-15670 37830,-15670 14773,0 28148,5989 37830,15670 9682,9682 15670,23057 15670,37831 0,14773 -5988,28148 -15670,37830 -5392,5392 -11930,9637 -19216,12342l0 5232 4081 34 -36 4663 -4045 -33 0 6072 0 2209 0 8371c0,687 -279,1310 -730,1761 -451,451 -1073,730 -1761,730l0 -10 -6619 0zm-4664 10l-9680 0 0 4784 9680 0 0 -4784zm-18491 -15562l27583 0 0 -3620 -27583 -227 0 3847zm27583 -8283l0 -3699 -2 1 0 -767 -27581 0 0 840 0 3397 27583 228z"/>
 </g>
</svg>
