<?xml version="1.0" encoding="UTF-8"?>
<!DOCTYPE svg PUBLIC "-//W3C//DTD SVG 1.1//EN" "http://www.w3.org/Graphics/SVG/1.1/DTD/svg11.dtd">
<!-- Creator: CorelDRAW X8 -->
<svg xmlns="http://www.w3.org/2000/svg" xml:space="preserve" width="120px" height="38px" version="1.1" style="shape-rendering:geometricPrecision; text-rendering:geometricPrecision; image-rendering:optimizeQuality; fill-rule:evenodd; clip-rule:evenodd"
viewBox="0 0 120000 38000"
 xmlns:xlink="http://www.w3.org/1999/xlink">
 <defs>
  <style type="text/css">
   <![CDATA[
    .fil0 {fill:white}
   ]]>
  </style>
 </defs>
 <g id="Layer_x0020_1">
  <metadata id="CorelCorpID_0Corel-Layer"/>
  <path class="fil0" d="M107714 15986c-62,-1225 -550,-2377 -1375,-3243 -843,-885 -1945,-1371 -3103,-1371 -1707,0 -2566,767 -3837,1663 -1194,-951 -2238,-1663 -3855,-1663 -1159,0 -2261,487 -3103,1371 -827,866 -1315,2018 -1377,3243 -61,1220 232,2282 951,3442 466,753 2242,2918 3984,4678 1082,1093 1480,1156 3433,2818 2057,-1662 2151,-1636 3299,-2787 1734,-1740 3527,-3892 4033,-4709 483,-783 1029,-1882 950,-3442zm-87244 13038l-85 0 -3152 0 -85 0 -3682 -16751 3250 0 2093 9556 2093 -9556 3250 0 -3682 16751zm38902 -20011c-1246,0 -2357,427 -3334,1282 -977,-855 -2089,-1282 -3334,-1282 -1368,0 -2541,488 -3518,1465 -976,977 -1465,2164 -1465,3554l0 14985 3334 0 0 -14985c0,-464 160,-862 476,-1191 317,-328 709,-494 1173,-494 464,0 861,165 1190,494 330,330 495,729 495,1191l0 14985 3298 0 0 -14985c0,-464 165,-862 494,-1191 329,-328 727,-494 1191,-494 464,0 856,166 1173,494 316,329 476,729 476,1191l0 14985 3334 0 0 -14985c0,-1392 -489,-2577 -1466,-3554 -977,-977 -2149,-1465 -3517,-1465zm17053 13299l-6668 0 0 1649c0,462 159,862 476,1191 316,328 708,495 1173,495 464,0 861,-165 1190,-495 330,-330 495,-727 495,-1191l3334 0c0,1368 -490,2548 -1466,3536 -976,988 -2161,1484 -3553,1484 -1368,0 -2542,-496 -3518,-1484 -976,-988 -1466,-2168 -1466,-3536l0 -6668c0,-1368 489,-2540 1466,-3517 977,-978 2150,-1466 3518,-1466 1392,0 2577,488 3553,1466 977,977 1466,2151 1466,3517l0 5019zm-3371 -5019c-10,-464 -159,-855 -476,-1173 -318,-317 -708,-476 -1172,-476 -465,0 -856,159 -1173,476 -318,318 -476,711 -476,1173l0 1685 3334 0 -37 -1685zm-69985 6668c0,1368 488,2540 1465,3517 977,978 2162,1466 3554,1466l3334 0 0 -3334 -3334 0c-464,0 -861,-159 -1190,-477 -330,-317 -495,-708 -495,-1172l0 -3327 5019 0 0 -3334 -5019 0 0 -3341c0,-464 165,-855 495,-1173 329,-317 726,-476 1190,-476l3334 0 0 -3334 -3334 0c-1392,0 -2577,488 -3554,1465 -977,977 -1465,2150 -1465,3518l0 10002zm32084 -1649l-6668 0 0 1649c0,463 159,862 476,1191 317,329 709,495 1173,495 464,0 861,-165 1190,-495 330,-330 495,-727 495,-1191l3334 0c0,1368 -489,2547 -1465,3536 -977,988 -2162,1484 -3554,1484 -1368,0 -2541,-496 -3518,-1484 -976,-989 -1465,-2168 -1465,-3536l0 -6668c0,-1368 488,-2540 1465,-3517 977,-978 2150,-1466 3518,-1466 1392,0 2576,488 3554,1466 977,977 1465,2150 1465,3517l0 5019zm-3371 -5019c-9,-464 -159,-855 -476,-1173 -318,-317 -708,-476 -1172,-476 -464,0 -855,159 -1173,476 -317,318 -476,710 -476,1173l0 1685 3334 0 -37 -1685zm10784 -4983c-1389,0 -2578,496 -3554,1484 -976,988 -1466,2169 -1466,3535l0 11652 3334 0 0 -11652c0,-464 166,-861 495,-1190 328,-329 726,-495 1191,-495l2200 0 0 -3334 -2200 0zm56823 -10852c-9688,0 -17542,7854 -17542,17542 0,9688 7854,17542 17542,17542 9689,0 17542,-7854 17542,-17542 0,-9688 -7853,-17542 -17542,-17542zm9926 23389c313,-1478 511,-3047 575,-4678l4658 0c-122,1615 -498,3184 -1121,4678l-4112 0zm-19851 -11695c-314,1479 -512,3048 -576,4678l-4658 0c123,-1615 498,-3183 1122,-4678l4112 0zm11095 -3193l0 -5992c1848,538 3314,2243 4267,3832 409,681 776,1420 1099,2211 -72,-35 -145,-69 -219,-102 -1661,-734 -3493,-672 -5147,51zm6862 11930c-109,1010 -277,1999 -502,2958l-2118 0c910,-945 1802,-1932 2620,-2958zm-13426 2958l-2135 0c-226,-961 -394,-1952 -503,-2965 823,1029 1723,2018 2638,2965zm-1142 -14836c324,-792 691,-1531 1099,-2212 954,-1589 2419,-3294 4268,-3832l0 5963c-1644,-699 -3505,-747 -5146,-22 -75,33 -148,67 -221,103zm-7501 14836c-624,-1494 -999,-3063 -1121,-4678l4657 0c64,1631 262,3200 576,4678l-4112 0zm12868 3508l0 5677c-534,-155 -1062,-415 -1580,-781 -972,-685 -1901,-1740 -2688,-3051 -544,-906 -1014,-1916 -1406,-3014l3919 0 40 34c623,517 1094,827 1463,1015 87,45 171,84 252,120zm6606 1845c-787,1312 -1716,2366 -2688,3051 -518,366 -1046,626 -1579,781l0 -5685c451,-194 936,-493 1452,-896 106,-83 216,-171 328,-265l3894 0c-393,1098 -863,2108 -1407,3014zm5064 -12370c-64,-1630 -262,-3199 -575,-4678l4112 0c623,1495 999,3063 1121,4678l-4658 0zm2314 -7017l-3505 0c-681,-2147 -1621,-4031 -2752,-5533 2552,1220 4733,3151 6257,5533zm-19373 -5533c-1130,1502 -2071,3386 -2752,5533l-3505 0c1525,-2382 3705,-4313 6257,-5533zm-6257 21906l3505 0c681,2148 1622,4031 2752,5534 -2551,-1220 -4732,-3152 -6257,-5534zm19373 5534c1131,-1503 2071,-3386 2752,-5534l3505 0c-1524,2382 -3705,4313 -6257,5534z"/>
 </g>
</svg>
