<?xml version="1.0" encoding="UTF-8"?>
<!DOCTYPE svg PUBLIC "-//W3C//DTD SVG 1.1//EN" "http://www.w3.org/Graphics/SVG/1.1/DTD/svg11.dtd">
<!-- Creator: CorelDRAW X8 -->
<svg xmlns="http://www.w3.org/2000/svg" xml:space="preserve" width="114px" height="38px" version="1.1" style="shape-rendering:geometricPrecision; text-rendering:geometricPrecision; image-rendering:optimizeQuality; fill-rule:evenodd; clip-rule:evenodd"
viewBox="0 0 114000 38000"
 xmlns:xlink="http://www.w3.org/1999/xlink">
 <defs>
  <style type="text/css">
   <![CDATA[
    .fil1 {fill:white}
    .fil0 {fill:white;fill-rule:nonzero}
   ]]>
  </style>
 </defs>
 <g id="Layer_x0020_1">
  <metadata id="CorelCorpID_0Corel-Layer"/>
  <g id="_2545386138784">
   <path class="fil0" d="M39915 28820c0,-6285 0,-12571 0,-18856 0,-498 -290,-1131 -903,-1493 4669,0 10240,0 14909,0 0,1283 0,2565 0,3847 -3142,0 -6284,0 -9426,0 0,1419 0,2839 0,4258 2809,0 5619,0 8428,0 0,1282 0,2564 0,3847 -2809,0 -5619,0 -8428,0 0,2799 0,5598 0,8397 -1527,0 -3054,0 -4580,0zm67047 -20647c2381,0 4573,805 6321,2157 -476,1103 -952,2206 -1429,3309 -163,379 -583,1371 -747,1751 -112,-1139 -457,-1345 -879,-1635 -929,-639 -2054,-1012 -3266,-1012 -3189,0 -5774,2585 -5774,5774 0,3189 2585,5774 5774,5774 1779,0 3370,-805 4429,-2070 642,1486 1284,2972 1925,4457 -1753,1367 -3958,2182 -6354,2182 -5713,0 -10344,-4631 -10344,-10343 0,-5713 4631,-10344 10344,-10344zm-42823 17153c646,0 1180,-54 1600,-161 421,-108 759,-255 1013,-441 255,-186 431,-406 529,-660 98,-255 147,-539 147,-852 0,-665 -313,-1219 -940,-1659 -626,-441 -1706,-907 -3230,-1424 -668,-227 -1331,-504 -1997,-808 -665,-303 -1262,-685 -1791,-1145 -528,-460 -959,-1018 -1292,-1674 -332,-655 -499,-1453 -499,-2393 0,-939 176,-1786 529,-2540 352,-753 851,-1395 1497,-1923 646,-528 1429,-935 2349,-1219 920,-283 1958,-425 3113,-425 1370,0 2554,146 3553,440 998,294 1820,617 2466,969 -336,919 -672,1838 -1008,2756 -104,285 -555,1527 -659,1812 21,-995 -659,-1428 -1229,-1627 -104,-36 -211,-73 -319,-107 -695,-225 -1532,-338 -2511,-338 -1096,0 -1884,152 -2364,455 -479,303 -719,768 -719,1395 0,372 88,685 265,940 176,254 425,484 748,689 323,206 695,392 1116,559 421,166 889,330 1395,513 1059,384 1977,778 2760,1160 783,382 1434,827 1953,1336 518,509 905,1106 1160,1791 254,686 381,1517 381,2496 0,1899 -665,3372 -1997,4420 -1330,1047 -3337,1570 -6019,1570 -901,0 -1713,-53 -2437,-161 -724,-108 -1366,-240 -1923,-396 -558,-157 -1038,-323 -1439,-500 -402,-176 -739,-342 -1013,-499 430,-1214 861,-2427 1292,-3641 606,333 1355,632 2246,896 890,264 1982,396 3274,396zm18908 3494c-2513,-6284 -5027,-12568 -7540,-18852 -200,-499 -598,-1129 -1398,-1497 1720,0 4239,0 5959,0 1750,4655 3500,9310 5250,13965 1557,-4142 3114,-8283 4671,-12425 192,-513 445,-1125 -431,-1540 1661,0 4332,0 5993,0 -2711,6783 -5422,13566 -8134,20349 -1457,0 -2913,0 -4370,0z"/>
   <path class="fil0" d="M18437 3368c3754,177 7162,1678 9768,4046l-6 6 -388 388c-2505,-2267 -5773,-3706 -9374,-3883l0 -548 0 -9zm10833 5111c2368,2606 3868,6013 4046,9768l-9 0 -7030 0c-415,0 -754,338 -754,753l0 0c0,414 339,753 754,753l7030 0 9 0c-178,3754 -1678,7162 -4046,9768l-6 -7 -388 -387c483,-534 929,-1102 1332,-1701l-44 30 -21 28c-167,128 -201,-108 -209,-127 -123,-276 -104,5 -230,195 -52,78 -131,313 -137,315 -128,53 -72,-218 -155,-212 -45,3 -152,455 -256,275 -9,-15 -59,-285 -90,-131 -78,386 -271,131 -352,242 -172,239 -113,224 -382,224 0,134 -20,216 -48,269l-3992 -3991c-292,-293 -772,-293 -1065,0l0 0c-293,293 -293,772 0,1066l3855 3854c-20,1 -35,9 -46,37 -99,237 -1,240 -187,145l-501 178c-31,57 -113,55 -127,80 -138,239 -161,134 -239,193 -133,100 -234,4 -300,83 -247,301 -423,56 -560,119 -154,70 -370,-43 -471,63 -72,75 -546,18 -443,58 132,52 128,125 264,232 83,64 312,-57 349,-4 51,72 465,189 503,153 191,-181 140,-273 183,-144 94,281 248,-15 313,-2 135,-127 283,-214 440,-346 103,-86 186,-480 238,-370 75,158 -25,78 123,84 235,10 300,-115 363,-122 311,-33 58,121 49,214 -20,211 -191,286 -218,402 -39,172 97,89 -124,172l-734 666c-268,69 -391,247 -482,261 -219,33 -150,297 -311,345 -206,61 -133,298 -876,328 -189,7 -84,319 -466,301 -61,-2 -164,248 -275,162 -188,-145 138,-76 -272,-135 -173,-25 -468,-192 -468,-64 0,110 -311,88 -317,-55 -6,-169 -235,-57 -253,-156 -35,-186 -84,-49 -177,-99 -19,-171 -40,-71 -386,-71l-158 -62c-13,-17 -7,-13 -24,-29 -40,-39 -298,-53 -356,-53 -229,0 -55,172 16,220 207,137 -19,315 375,331 641,24 139,190 586,190 110,159 393,-60 680,103 181,103 154,42 307,32 285,-18 389,-13 393,32 1597,-667 3055,-1600 4318,-2743l388 388 6 6c-2606,2368 -6014,3868 -9768,4046l0 -9 0 -2743c183,25 496,2 599,2 32,1 165,-39 166,-37 35,116 220,83 267,94 263,58 332,-73 414,-9 163,127 70,-106 167,-110 295,-12 191,-68 240,-87 6,-3 397,14 455,-27 110,-78 120,-6 262,-55 23,-171 169,-81 166,-171 -14,-441 151,-146 151,-493 0,-198 83,-162 14,-291 -120,-224 -170,-14 -294,-99 -177,-122 -256,221 -254,241 -13,1 -242,-65 -272,-38 -163,147 -39,-36 -300,-16 -121,185 -141,-69 -231,202 -28,85 -231,35 -256,-27 -28,-71 -124,30 -178,-24 -176,-176 -250,178 -318,-113 -38,-166 -25,7 -190,-175l-75 -21c-41,2 19,-65 -80,-80 -151,-24 -72,-147 -71,-148 169,-98 6,-164 -30,-163 -112,3 -125,-193 -221,-208 -155,-23 -86,42 -85,61 11,195 -9,150 -46,113l0 -2609c0,-414 -339,-753 -753,-753l0 0c-414,0 -753,339 -753,753l0 2214c-57,20 -106,50 -117,16 -97,-305 -199,-152 -260,-178 -157,-66 -107,-250 -147,-246 -212,18 -148,-181 -208,-278 -121,-192 -84,77 -100,125 -104,34 -62,-179 -79,-208 -79,-132 -133,-5 -143,-3 -270,26 -71,173 -138,235 -106,98 66,186 108,218l247 220c224,46 63,165 286,165 264,0 129,222 215,226 200,9 280,80 336,137l0 188c-40,-5 -73,-20 -81,-47 -48,-155 -248,-104 -192,36 92,229 -1,163 -1,214 -118,78 -7,77 -69,83 -101,10 -37,44 -71,53 -184,55 -73,-127 -73,-138 0,-265 23,-235 -178,-348l-199 -171c-43,1 -142,-138 -191,-138 -233,2 -150,-53 -194,-144 -14,-29 -201,-181 -230,-190 -189,-57 -11,-260 -120,-269 -296,-26 -140,-12 -305,-167 -45,-42 -215,-72 -216,-72 -136,-98 -236,-41 -332,85 -47,62 -418,63 -453,-63 -49,-172 -273,-73 -426,-79 -151,-5 -59,146 -51,224 7,75 -371,-58 -487,41 -103,87 -456,130 -448,205 13,131 145,119 -7,183 -225,95 -121,-85 -165,130 -113,17 -736,28 -774,-99 -48,-162 -114,-57 -271,-85 -237,-42 -217,21 -217,-142 0,-82 -189,-285 -282,-278 -93,6 -135,-24 -168,-30 -320,-61 91,-257 -71,-393 -267,-227 46,-186 136,-324 95,-145 117,26 117,-201 0,-138 213,85 52,-331 -49,-125 338,-23 390,7 443,262 -80,304 562,304 258,0 64,129 186,117 129,-13 217,56 320,144l220 41c38,-11 55,-201 184,-236 217,-59 -70,-201 24,-330 137,-186 -152,-175 -147,-292 4,-91 -452,-491 -298,-487 223,5 -3,-34 233,-34 183,0 396,292 388,175 -39,-607 380,216 424,2 12,-58 117,68 175,-40 89,-164 214,-6 242,-89 68,-194 -95,-58 157,-112 184,-40 272,76 357,-94 168,-336 299,-96 325,-251 19,-116 272,77 277,-71 2,-59 133,-12 176,14 69,41 251,-143 220,-273 -49,-199 57,-347 56,-358 -14,-408 132,-131 278,-285 228,-240 278,52 181,95 -129,57 -116,-27 -81,108 53,211 -119,24 -96,303 10,117 88,175 148,115 283,-277 368,119 266,147 -100,28 -204,169 -290,2 -79,-156 -224,-93 -238,-61 -71,156 178,134 198,188 73,199 327,139 438,42 172,-150 7,381 282,91 82,-86 255,-159 375,-103 134,62 253,-64 256,30 5,212 129,150 130,133 17,-355 13,-134 117,-193 139,-79 267,62 267,-202l-7 -247c-17,1 39,-161 46,-190 20,-76 126,-163 126,-177 1,-391 189,-228 117,-151 -40,43 -55,211 9,209 233,-5 162,108 289,137 181,41 10,-266 10,-268 10,-236 -109,-213 -240,-269 -17,-159 195,-60 278,-104 154,-80 211,-7 270,-52 197,-151 301,22 405,-151 409,0 159,-261 -6,-261 -185,0 -249,48 -301,49 -298,7 -180,-25 -324,154 -56,70 -296,82 -384,50 -171,-62 -158,-100 -158,-237 0,-195 -208,-319 -115,-454 156,-226 54,-64 93,-280 5,-29 168,-76 187,-95 27,-26 -14,-335 289,-496 197,-104 -33,-313 -201,-283 -269,46 -366,28 -299,313 70,298 -112,292 -216,440 -169,242 -467,96 -380,293 18,41 -143,205 -66,333 67,112 100,145 175,280 77,138 25,210 65,244 66,54 32,218 -20,243 -245,120 -349,75 -349,395 0,94 -4,338 -146,335 -428,-10 -172,29 -331,121 -498,289 -246,-305 -314,-431 -113,-210 -80,-87 -88,-284 -10,-266 -92,-311 -339,-319 -133,-4 -298,372 -623,44 -40,-42 -111,-425 -42,-476 122,-92 -22,-358 87,-445 139,-109 30,-379 342,-393 236,-10 84,-77 177,-83 117,-6 256,-151 336,-60 81,93 190,30 164,1 -284,-320 227,-206 221,-446 -3,-104 182,-59 178,-226 -3,-177 297,-199 269,-361 -59,-340 89,-115 176,-259 101,-169 273,-225 291,-256 78,-132 -168,-32 -182,-96 -39,-197 122,-87 212,-243 267,-460 154,-105 258,36 206,-22 -133,-204 217,-323 107,-36 300,-178 400,-77 115,115 379,-50 491,73 61,69 -189,322 60,309 42,-123 277,-70 285,-40 85,332 116,94 171,72 131,-52 457,16 549,117 141,155 381,135 413,178 92,128 78,346 -17,457 -127,149 -152,114 -288,145 -251,56 -359,-79 -409,-78 -350,11 71,216 77,339 7,156 83,165 98,242 24,121 526,255 467,117 -220,-47 -316,-426 -88,-311 121,61 185,39 333,39 99,0 -184,-242 -51,-445 87,-4 110,-140 138,-150 193,-69 97,-185 307,-50 -15,-10 -69,-216 -106,-247 -189,-151 -142,-264 -192,-336 -279,-395 390,-285 320,33 -66,298 208,152 210,152 143,0 -9,-315 63,-392 98,-104 -2,-277 78,-309 112,-45 337,-448 433,-40 42,177 138,13 145,-21l-83 -158c0,-55 -25,-146 -13,-192 22,-91 352,-143 431,-161 51,-227 -322,-186 -329,-328 -14,-274 246,59 317,-78 140,-268 266,-134 418,-214 81,-43 372,21 386,20 33,-3 -177,-387 -321,-400 -208,-19 -132,-27 -299,-86 -254,-91 -180,-191 -252,-272 -150,-169 -84,-169 -162,-271 -165,-214 207,-402 235,-392 112,40 145,283 427,385 134,49 164,-8 251,140 317,543 554,273 666,543 158,379 -123,533 -45,661 248,0 226,-102 282,-238 89,-214 60,-212 60,-396 0,-84 -177,-126 -232,-194 -86,-107 -79,-80 -115,-122 -366,-418 439,-215 548,-364 -124,41 -631,-11 -652,36 -94,209 -420,20 -441,-69 -25,-107 -187,-106 -274,-157 -109,-63 -317,-543 -75,-286 17,17 209,179 224,177 236,-31 262,7 262,-164 0,-173 -230,28 -295,-197 -74,-255 220,-232 372,-236 226,-7 314,217 442,115 127,-102 -279,-290 -281,-291 -320,-256 -364,95 -569,10 -335,-136 -172,-200 -142,-280l75 -144c-3,-7 -133,-74 -151,-81 -53,-18 -97,-283 -96,-319 4,-138 -96,-333 -191,-430 -130,-134 1,-330 -32,-556 -29,-203 9,-248 -142,-248 -276,0 -253,-490 -75,-515 308,-43 212,-8 324,-265 77,-174 165,-119 383,-119 141,0 264,216 292,327 44,170 65,121 90,205 135,452 432,197 266,-48 -162,-237 -54,-179 -98,-347l-62 -281c-8,-32 -63,-164 -34,-186 111,-86 51,-362 32,-480 -9,-60 -233,-97 -172,-183 76,-109 -203,-58 -125,-273 61,-167 198,-196 345,-196 92,0 412,-172 413,-178 52,-258 -103,-98 -153,-96 -362,14 -204,-152 -249,-272 -94,-247 -132,-84 -132,-427 0,-330 -186,29 -186,35 7,279 -192,-37 -194,-39 -107,-96 -74,-334 -197,-355l-144 -144c-3,-21 -6,-31 -16,-52 -171,-361 57,-239 21,-345 -85,-254 -165,-54 135,-261 -29,-65 -130,-217 -210,-236 -288,-73 -476,-107 -379,-421 64,-210 241,-217 244,-244 25,-200 -218,-72 -308,-150 -23,-20 -647,-33 -647,-176 0,-131 388,8 185,-196 -19,-19 -40,-182 -43,-205 -20,-215 -186,-176 -195,-17 -20,346 -42,126 -273,95 -454,-61 -222,-120 -398,-269 -98,-83 11,-182 -223,-260 -313,-104 -549,-606 -482,-633 3,-14 -32,-466 -46,-148 -1,15 -216,136 -347,12 -1,-2 -387,-185 -261,-194 304,-21 116,-144 411,-144 53,0 173,-273 251,-192 136,140 262,-67 222,236 -8,60 210,121 269,121 106,0 18,206 -24,247l199 -13c0,-194 -6,-151 237,-151 201,0 187,235 406,226 308,-12 149,32 101,-116 -55,-172 -105,-185 -187,-321 -134,-221 -69,-48 -76,-211 -12,-262 461,-81 549,25 120,144 564,-64 679,31 140,117 284,15 295,16 299,14 -107,212 453,212 149,0 137,77 123,82 -224,69 376,123 385,224 6,58 173,26 220,30 98,9 271,-42 201,-115 -197,-206 52,-453 106,-441 126,27 205,370 201,-86 -2,-139 279,12 326,97 53,97 259,188 257,97 -9,-362 250,221 255,61 2,-93 187,-86 256,-86 129,0 292,-65 300,-64 401,110 -119,193 -132,296 -51,420 -326,281 -358,533 -10,84 -379,72 -460,60 -221,-34 -84,-91 -447,-91 -152,0 -213,-23 -300,-28 -232,-13 -38,-104 -372,-138 -181,-18 -193,22 -276,23 -176,3 -212,18 -370,50 -159,33 35,200 49,203 243,45 132,-96 429,-96 68,0 305,34 328,58 206,212 -241,194 -165,244 248,162 144,282 412,282l137 -7c69,0 325,9 358,-5 294,-129 467,142 403,260 -116,214 187,178 299,304 5,6 32,57 63,119l-1780 1780c-293,293 -293,773 0,1066l0 0c293,292 773,292 1066,0l1875 -1876c167,224 541,90 618,224 111,192 379,415 379,82 0,-69 -283,-386 -3,-272 216,88 -273,-339 -271,-375 18,-378 208,-177 420,-258 195,-76 194,12 319,36 146,29 299,42 446,102 67,27 285,59 286,60 301,193 290,97 469,440 7,14 229,161 247,165 442,109 255,602 397,592 218,-15 415,552 422,402 16,-313 323,429 433,450 119,23 88,-80 88,-160 0,-334 250,-350 293,-196 42,153 441,706 435,759l-117 76c-1,-3 -195,-145 -195,-145 -254,-13 -46,87 -125,308 -38,107 -17,-88 -213,-108 -164,-17 202,472 203,473 195,195 108,566 -23,344 -47,-79 -169,-147 -176,-110 -10,49 286,679 316,736 237,449 231,208 293,150 81,-77 3,-264 -35,-298 -138,-123 -90,-676 -46,-603 92,156 104,50 172,299 32,119 175,253 178,273 65,439 259,-20 255,-154 -12,-402 214,-110 269,59 -31,-160 169,87 170,94 9,3 107,492 161,582 107,180 106,264 224,284 -558,-2666 -1819,-5073 -3581,-7019l388 -388 6 -6zm-12339 26153c-3754,-178 -7162,-1678 -9768,-4046l6 -6 388 -388c95,85 191,170 288,254 -11,-18 -11,-30 7,-39 109,-48 205,106 205,-103 0,-101 149,-62 39,-145 -168,-127 -89,-300 -14,-231 132,122 90,43 111,19 240,61 377,-60 461,-27 545,219 230,0 328,-15 239,-36 353,233 498,160 87,-43 375,103 376,-5 1,-157 279,169 315,-268 76,-32 105,77 290,2 134,-55 304,64 316,64 172,0 350,-335 409,-164 89,261 195,7 351,218 68,91 128,72 174,122 119,128 232,-3 271,95 26,65 150,78 152,120l611 -69c15,-1 269,180 303,36 51,65 132,165 223,172 208,16 142,67 301,67 28,0 92,-27 94,-25 167,116 135,29 209,60 232,100 284,-48 320,49 64,169 307,22 315,26 27,228 320,-34 368,144 59,219 52,-47 214,21 321,136 68,118 -78,116 -188,-2 365,282 -96,282 -108,0 -48,183 21,185 263,10 82,-39 291,158 90,85 763,64 762,208 -1,163 151,28 208,150 85,180 158,70 344,92 57,7 100,99 387,126l0 2576 0 9zm-10833 -5111c-2368,-2606 -3868,-6014 -4046,-9768l9 0 548 0c177,3601 1616,6869 3883,9374l-388 387 -6 7zm-4046 -11274c178,-3755 1678,-7162 4046,-9768l6 6 4971 4972c17,16 34,31 51,46 -146,63 -340,108 -237,186 166,124 601,269 601,393 0,124 -83,186 -435,186 -352,0 -352,332 -559,-144 -207,-477 -228,-352 -373,-704 -145,-352 62,-166 -145,-518 -207,-352 -269,-331 -393,-538 -124,-207 -186,-518 -373,-249 -186,269 -621,269 -621,269l-103 311c0,0 -332,269 -477,310 -145,42 -228,228 -228,394 0,166 -207,497 -207,497l-517 -21 -394 414 0 352c0,0 249,-269 539,-248 290,20 145,352 435,414 290,62 517,-249 517,-249 0,0 394,21 621,83 228,62 63,0 290,62 228,62 83,497 83,497 0,0 -186,207 -228,373 -41,166 -41,456 -269,435 -228,-21 -476,-145 -518,62 -41,207 -82,518 -82,518l414 83c0,0 -166,434 -352,538 -186,103 -539,476 -539,476 0,0 -434,248 -434,476 0,29 3,58 9,86l-786 0c-99,-182 -194,-352 -194,-618 0,-371 -41,-742 -41,-742l-289 -412 0 721c0,0 -144,62 -247,227 -103,165 -227,165 -124,453 34,95 75,237 107,371l-134 0c-109,-261 -175,-450 -302,-577 -165,-165 -351,-453 -165,-412 185,41 -21,-969 -21,-969l-371 268 0 -659 -309 -536c0,0 -474,557 -474,248 0,-310 -20,-763 0,-928 21,-165 -103,-350 -103,-350l-350 474c0,0 -88,40 -190,79 -304,1076 -492,2202 -549,3362l-548 0 -9 0zm5111 -10833c2606,-2368 6014,-3869 9768,-4046l0 9 0 548c-3415,168 -6531,1470 -8980,3538 142,-54 301,-90 472,-90 689,0 445,-331 867,-538 423,-207 467,-248 734,-227 267,20 644,103 778,227 133,124 489,538 711,352 222,-186 889,-228 889,-228l-44 249c0,0 667,-41 889,83 222,124 556,372 189,248 83,-124 994,228 1263,104 269,-124 0,-414 394,-311 393,104 600,207 745,228 145,21 704,-373 704,-373 0,0 -456,352 -228,456 180,81 514,-120 617,-321l0 2224c-42,18 -94,45 -161,84 -497,290 -622,-144 -1015,0 -393,146 -518,311 -766,497 -249,187 -249,-41 -642,270 -393,310 -890,331 -973,476 -83,145 -642,-269 -642,-21 0,249 -476,311 -414,663 62,352 -145,497 -290,559 -34,14 -74,47 -114,91l-4745 -4745 -6 -6zm11274 -1188l51 -12c352,-83 994,-186 994,-186l-1045 348 0 -150zm0 943c46,59 137,161 238,204 145,63 372,125 186,290 -96,86 -274,176 -424,244l0 -738zm0 990c62,4 122,22 176,63 186,146 662,415 186,394 -106,-5 -233,-21 -362,-40l0 -417zm0 788c44,42 75,82 93,124 62,146 165,332 -42,332l-51 0 0 -456zm-12279 10806l-214 163c0,0 -35,-66 -67,-163l281 0zm12279 10841c419,117 191,336 97,251 -32,-29 -65,-41 -97,-43l0 -208zm-15161 -16105c158,-152 309,-298 402,-425 164,-227 329,-639 432,-886 103,-247 309,-536 83,-495 -95,18 -223,122 -311,200 -231,521 -434,1056 -606,1606zm674 -1756c344,-468 308,-609 449,-750 144,-144 247,-412 288,-557 17,-59 27,-115 33,-160 -283,473 -540,962 -770,1467zm6048 19259c-59,-81 -131,-108 -207,-125 68,42 137,84 207,125zm-891 -571c-24,-32 -52,-70 -87,-115 -40,-51 -81,-50 -116,-28 67,48 135,96 203,143zm23437 -15080l30 709c-2,20 48,167 47,174 -6,145 62,90 62,326 0,185 26,279 55,349 -38,-527 -103,-1047 -194,-1558zm-151 6060c-47,-19 -47,-63 -134,224 -60,198 -178,109 -194,40 -55,-244 -262,-13 -139,139 106,131 -35,519 -121,568l-69 590c0,2 28,179 33,201 51,240 -213,572 -227,695 -40,355 -288,562 -308,672 -17,94 -146,315 -164,450 584,-1118 1032,-2319 1323,-3579zm-13637 -15043c0,-1 -20,-37 -19,-41 4,-9 64,3 86,-10 15,-10 4,6 31,6 4,0 68,0 68,0 18,8 -2,18 41,18 26,0 4,8 38,13l17 0c31,5 14,11 58,11 9,0 7,5 7,13 16,11 10,12 10,38 -21,10 -93,30 -113,10 -25,-25 -27,-20 -65,-20 -4,9 -12,6 -31,13 -1,1 -29,1 -34,-3 -16,-16 0,-17 -30,-17 -11,0 2,-4 -17,-4 -18,-27 -3,8 -28,-17l-19 -10zm313 687c9,0 105,-3 106,-3 22,9 8,23 62,17 48,-6 -7,-21 41,-21 21,0 34,41 58,45 20,3 -5,10 34,10 19,0 -4,3 20,3 15,0 2,11 17,11 22,0 25,27 48,27 11,0 41,19 41,34 0,38 17,8 17,72 0,16 -21,10 -37,10 -63,0 -91,14 -130,-34 -11,-14 -5,-2 -20,-7 -24,-7 6,-7 -31,-7 -38,0 -40,-7 -64,-36 -15,-11 -9,-14 -36,-35 0,-52 -85,-21 -99,-35 -19,-19 0,10 -30,-20 -10,-10 -17,-13 -17,-24l20 -7zm670 2132c-11,-9 -55,-23 -68,-23 -16,0 -32,0 -48,0 -31,46 -24,10 -24,75 32,17 -6,18 37,18 19,0 46,24 55,24 17,0 31,19 31,34 0,20 3,-2 14,24 2,5 70,4 75,3 25,-6 -1,-7 41,-7 33,0 59,4 89,4 8,-50 -10,-58 34,-48 13,3 -8,-40 -10,-45l-4 -17c-2,-3 -13,-8 -13,-20 -36,-18 43,1 47,-10 1,0 0,-30 0,-31 -8,0 -115,0 -116,0 -34,11 9,10 -34,10 0,0 -27,5 -27,7 -6,14 3,17 -21,17 -36,0 1,-14 -41,-14l-17 -1zm1119 5992c11,5 63,43 70,50 4,5 78,18 83,-17 4,-24 35,-44 57,-44 75,0 44,-8 74,35 14,18 36,31 57,31 27,0 41,-5 61,8 0,26 18,3 18,35 0,11 9,12 9,48 0,53 8,31 17,53 13,31 -19,11 22,39 0,66 23,61 -83,61 -31,0 -61,0 -92,0 -14,42 9,57 -44,79 0,0 -69,0 -70,0 -27,-11 -23,-48 -43,-48 -28,0 -12,38 -35,66 -29,34 4,5 -27,17 -10,4 -16,22 -52,22 -52,0 -12,18 -83,18 -39,0 -23,7 -35,-23 -10,-23 16,-99 -13,-113 0,-6 -5,-28 -9,-31 -20,-14 -31,-32 -48,-35 -21,-3 -14,-5 -31,-22 -38,-38 6,-22 -30,-47 -22,-16 -4,-7 -44,-14 -9,-1 -21,3 -26,-9l0 -13c-15,-52 -13,15 -13,-61 0,-22 0,-43 0,-65 25,0 17,-15 48,-27 60,-22 17,-30 79,-30 13,0 56,33 61,48 8,25 -9,44 35,44 30,0 28,-6 44,17 59,0 17,13 47,13 0,-29 3,-37 -4,-65l0 -20zm774 -339c12,18 15,52 0,70 -5,6 -9,14 -9,22 -27,18 -44,9 -44,52 0,21 0,210 0,210 13,30 18,-7 18,66 0,33 3,22 -18,17 -37,-9 -31,-30 -43,-35l-26 -13c-27,-16 -3,10 -22,-17 -12,-17 -23,-13 -40,-13 -7,-15 -21,-13 -43,-27 -22,-14 -23,-17 -44,-17 -24,-36 -10,6 -29,-26 -15,-27 -82,-18 -111,-18 -43,0 -43,8 -48,-35 0,0 0,-74 0,-74 15,-36 138,-6 166,-22 30,-17 49,-4 83,-9 34,-4 26,-15 44,-17 20,-3 57,-40 57,-48 0,-38 13,-3 30,-44 8,-18 59,-4 70,-4l9 -18zm-1902 1766l9 -4c9,-4 5,-98 5,-114 61,-49 2,-38 39,-61 12,-7 52,-4 66,-4 0,137 0,47 -31,122 0,0 0,83 0,92 -13,7 -32,25 -43,36 -15,-23 -30,-45 -45,-67zm870 13552c-62,-9 -58,20 -58,-54 0,0 18,-66 28,-66 45,0 90,0 135,0 16,-31 13,-19 35,-38 15,-12 48,-31 66,-31 33,0 33,-43 56,-49 24,-6 -11,-14 48,-14 60,0 38,-9 66,-17 18,-5 4,-11 25,-21 0,-49 50,-22 62,-35 8,-7 24,-8 21,18 -3,21 -3,10 -28,24 -12,7 -56,35 -66,38 -5,2 -52,25 -52,25 -27,0 -30,35 -21,48 5,6 4,8 4,14 11,6 7,15 7,31 0,48 1,39 -49,39 -9,0 -1,6 -28,6 -16,0 -72,-5 -83,4 -15,13 -10,4 -10,31 0,32 -11,41 -11,59 -23,12 0,25 -62,25 -46,0 -49,9 -73,-25 -18,-24 20,-7 -12,-12zm-2163 50l7 0c35,0 13,2 24,18 7,9 50,56 60,56 12,0 4,-4 24,-18 0,-40 4,-21 21,-28 27,-11 -13,-10 41,-10 17,0 4,10 35,10 66,0 29,10 66,-17 24,-17 -4,-14 38,-14 43,0 21,15 46,28 0,36 6,18 13,28 15,17 -16,17 42,17 37,0 12,-1 42,-21 0,-18 29,-28 45,-24 38,9 51,-10 76,7 0,17 0,34 0,52 -15,8 -11,35 -52,35 -41,0 -24,-7 -62,-7 -15,0 12,55 -14,55 -66,0 -34,-12 -56,-17 -37,-9 8,-11 -52,-11 -45,0 -25,11 -38,11 -12,0 -18,3 -38,3 -80,0 -18,16 -66,32 -14,40 -28,31 -66,31 -17,0 -38,-40 -59,-49 -5,-2 -16,-13 -18,-17 -17,0 -6,-11 -34,-11l-25 1 0 -140zm-2499 -481c29,-29 13,0 40,-19 52,-38 -20,-34 90,-34 21,0 41,3 66,3 40,0 18,10 63,10 29,0 27,18 69,18 11,0 45,3 52,-4 0,19 4,-1 4,18 -37,24 -33,45 -39,52 -19,24 1,-14 -10,14 -3,7 -14,14 -21,14 -21,30 -17,-9 -17,48 0,62 17,25 17,73 0,10 3,64 -3,66 -17,7 2,10 -35,14 -11,1 -92,-2 -97,-3l-25 -21c-6,-5 -21,-29 -31,-31 -17,-4 -27,-23 -45,-28 -18,-6 -10,-14 -42,-14 -37,0 -15,-14 -31,-14 -23,0 -7,-11 -38,-11 -3,0 -39,-13 -52,-13 -24,0 -42,-1 -59,-18 -25,-24 -9,2 -46,-35 -46,-46 -43,-11 -83,-27 -10,-4 -13,8 -31,-11 -13,-13 -12,7 -21,-31 -3,-12 -7,-107 0,-111 16,-10 111,-11 129,-4 23,10 1,21 38,21 6,0 18,6 21,18 0,3 23,27 24,28l17 10c27,11 12,14 21,17l10 0c28,11 -12,11 42,11 8,0 17,0 23,-6zm-2343 -948c-27,-4 -44,2 -28,-22 8,0 6,-8 35,-8 7,0 61,1 62,0 14,-3 42,-20 42,8 0,19 -3,20 -21,27 -28,12 13,11 -38,11 -26,0 -25,-12 -52,-16zm-330 -3c-28,-11 -13,-5 -18,-16 -12,-29 -10,11 -10,-31 0,-22 23,-35 38,-28l11 10c2,3 28,14 34,14 41,0 1,11 52,11 18,0 9,-28 53,-28 42,0 34,13 34,52 0,33 7,27 32,52 14,14 -15,16 -18,17 -28,12 13,11 -38,11 -9,0 -42,6 -42,-7 -23,-16 0,-14 -24,-38 -18,-18 -16,12 -21,17 -3,3 -6,29 -28,7 -5,-5 -24,-26 -27,-31 -14,0 -14,0 -21,-14l-7 2zm1639 -2c-29,-12 -62,-7 -93,-7 0,-25 -6,-76 7,-94 9,-13 6,-81 6,-101 25,0 13,-14 46,-14 17,0 62,4 76,-6 11,-8 35,-4 49,-4 0,19 0,37 0,56 -16,5 -14,2 -14,17 -25,16 2,1 -17,21 -9,8 -4,78 -4,94 -26,13 -42,-15 -42,27 -10,5 -10,13 -14,11zm-177 481c-36,2 -21,2 -52,-19 -18,-12 -17,-22 -17,-42 4,-3 38,-32 38,-38 0,-22 0,-242 0,-243 0,-1 -21,-25 3,-35 1,0 49,0 49,0 29,10 4,25 80,25 24,0 49,0 73,0 0,-28 7,-21 0,-39 -9,-22 45,-41 55,14 8,38 25,6 14,52 -6,29 -10,2 -10,56 0,55 10,37 17,59 1,3 6,68 4,73 -8,20 -7,-10 -7,24 0,28 -13,40 -31,63 -11,12 -45,11 -49,17 -8,11 3,7 -21,7 -13,0 -29,-2 -42,3 -19,9 10,7 -24,7 -18,0 -6,5 -28,21 -10,8 -29,5 -38,-3 -6,-6 -5,-3 -14,-2zm2732 -5134c54,8 -9,-13 58,-13 122,0 103,-14 103,114 0,90 18,122 -43,60 -32,-32 -6,-22 -22,-60 -3,-8 -26,-7 -33,-16 -13,-19 -22,-21 -27,-33 -4,-10 0,-16 -22,-32l-14 -20zm-128 680c-81,-16 -52,-2 -109,22 -10,4 -5,46 -5,54 19,10 28,22 0,22 -17,33 8,104 -17,104 -52,0 -60,-12 -60,27 35,24 7,35 38,66l33 11c21,31 33,20 33,-11 0,-26 -5,-17 16,-38 48,-48 49,24 49,-60 0,-18 -38,-15 33,-44 12,-5 9,-68 0,-77 25,0 60,6 82,-5 0,-32 -25,-28 -33,-33 -1,-1 -23,-20 -27,-22 -24,-10 11,-7 -33,-16zm-3712 -2298c4,-110 -202,-27 -80,109 1,1 48,90 80,23 25,-54 1,-135 0,-132zm-122 306c-131,-65 34,-280 36,-55 0,53 -41,52 -36,55zm-443 881c-70,-202 265,-157 126,-56 -41,30 1,147 -53,63 -9,-14 -72,-6 -73,-7zm1051 -166c25,-110 -80,-160 55,-197 23,-6 171,-99 65,40 -117,153 -32,111 -60,173 -4,9 -85,9 -92,0l32 -16zm-377 123c-64,-76 104,-205 104,81 0,47 -104,46 -104,-70l0 -11zm-665 597c-70,-10 -236,233 1,128 70,-31 87,134 32,134 -40,0 -206,193 132,201 8,1 156,107 -21,115 -105,6 234,342 -111,334 -6,0 -224,-364 -224,-90 0,77 121,259 -85,259 -101,0 -202,-26 -161,124 19,70 403,132 62,183 -21,3 -305,94 -306,97 -80,177 222,116 312,41 100,-84 -85,104 231,106 55,0 83,216 314,139 38,-12 262,-62 278,-42 118,147 144,56 211,101 76,52 143,-36 14,-158 -165,-154 239,-43 232,-198 -12,-298 -225,-110 -254,-247 -12,-58 -62,-73 -9,-172 23,-42 6,-129 -25,-154 -64,-50 -141,-99 -138,-160 7,-115 57,-25 71,-206 14,-181 -153,-102 -206,-185 -1,-1 -26,-93 35,-113 441,-149 170,-120 385,-284 149,-114 -544,-127 -295,-300 79,-55 185,62 185,-105 0,-80 -203,-52 -249,-138 -137,46 -148,310 -375,113 -26,-23 -193,-92 -114,65 19,38 67,141 29,171 -74,58 100,263 -26,263 -64,0 36,25 42,22l33 -44zm-748 183c65,38 207,-19 136,-91 -84,-84 167,-23 191,60 17,54 205,-56 212,43 6,94 78,19 11,166 -23,52 35,336 -152,80 -70,-96 -3,-101 -103,-115 -46,43 62,113 43,254 -26,194 55,26 -80,223 -116,169 -31,130 -63,222 -26,79 -94,-169 -208,-168 -162,2 -409,18 -499,-145l338 -337c64,-65 115,-139 151,-218 3,8 8,18 23,26zm19272 -12089c116,28 251,549 46,125 -18,-37 -46,-125 -46,-125zm-3945 -2841c88,-232 212,-351 274,-13 27,147 342,248 19,177 -274,-61 -267,50 -525,59 -202,8 -21,183 -324,193 -62,2 -29,129 -243,3l569 -569c2,26 2,56 0,90 -5,113 223,78 230,60zm331 -711c152,2 218,18 290,181 55,126 142,145 227,382 17,48 177,271 226,224 129,-121 92,69 103,-197 4,-103 192,130 301,76 62,-31 225,-25 267,22 62,70 117,-34 248,201 81,145 121,79 153,222 0,3 92,73 132,180 132,357 408,153 388,531 -16,271 -114,162 210,253 108,31 6,300 115,324 275,60 130,122 241,369 26,58 436,164 244,325 -94,79 -117,-240 -244,-238 -276,3 -419,-169 -414,-433 5,-268 -260,-106 -260,-454 0,-420 -76,-4 -286,-295 -125,-173 -210,-50 -220,-188 -2,-34 -52,-208 -74,-224 -242,-176 -191,-81 -370,-319 -53,-70 -64,92 -286,92 -202,0 -204,-269 -241,-134 -13,49 -158,82 -241,-84 -5,-1 -370,69 -375,-21 -6,-119 -28,-78 -28,-252 0,-201 -224,-273 -289,-360l183 -183zm-2108 -1033c-108,-158 -353,99 -36,38 35,-7 49,-21 36,-38zm-5062 12954c-52,-69 38,-75 -51,-196 -72,-98 263,-278 236,113 -6,90 105,146 -109,71 -21,-7 -83,4 -76,12zm-8747 -288c128,-72 313,188 309,12 -2,-131 -561,-229 -33,-300 314,-43 47,511 217,377 106,-83 73,-265 126,53 23,144 41,-291 114,-66 36,113 -34,142 157,148 40,1 35,80 116,12 21,-19 239,-51 101,177 -19,31 173,443 -76,443 -232,0 -86,324 -279,13 -58,-92 -125,92 -249,-78 -70,-97 -423,200 -415,-282 2,-74 -195,-201 -122,-197 1,0 236,-46 115,-146 -20,-17 -86,-163 -81,-166zm8822 -1329c129,-332 -57,-57 -3,-518 19,-170 28,-534 111,-663 269,-415 -143,-670 -154,-394 -8,200 -144,96 -154,442 -1,28 -94,42 -127,248 -117,717 72,533 133,968 50,360 43,125 -38,303 -32,71 0,250 200,246 175,-4 -88,227 418,122 104,-22 216,-17 209,-173 -4,-88 -569,-318 -589,-543l-6 -38zm-7394 -4623c-185,-4 25,111 -296,103 -108,-3 -97,251 -28,347 199,279 -160,298 -254,569 -55,157 -366,199 -382,301 -10,70 -206,71 -301,143 -87,65 -286,-18 -286,121 0,216 124,199 73,254 -28,30 -50,-26 -88,121 -5,19 -212,156 -216,-94 -2,-107 -144,-83 -153,178 -6,190 -87,63 -131,160 -1,4 -235,142 -276,-14 -55,-205 -17,-46 -98,80 -52,82 -457,55 -589,55 -95,-116 -19,213 -326,205 -270,-6 192,647 -200,253 -43,-45 -200,-101 -200,110 0,120 -21,158 -56,178 105,130 168,294 168,473l0 0c0,397 -313,725 -704,751 -24,133 5,262 118,260 412,-8 248,-322 778,-316 106,1 351,250 449,-102 34,-122 624,-32 578,91 -24,66 -84,55 142,111 292,71 52,-96 253,226 157,251 211,-76 253,-80 337,-30 140,57 360,-269 116,-173 73,347 107,374 263,211 394,-37 485,180 51,120 860,199 407,-76 -193,-117 75,-309 79,-383 2,-45 222,-168 222,33 0,204 -164,456 89,418 90,-14 30,-495 108,-584 80,-90 56,-456 297,-198 150,161 160,322 139,9 -27,-412 55,-67 250,-82 47,-3 90,-179 345,-235 757,-168 278,-71 379,-486 20,-81 198,89 224,-225 17,-208 40,-192 124,-194 108,-328 283,-627 508,-878 -49,-56 -97,-118 -146,-194 -63,-97 178,47 248,68 4,1 9,3 14,5 55,-53 112,-104 172,-153 -87,-86 -242,-262 -75,-281 1,-2 56,-348 -57,-365 -118,-17 -328,-105 -505,-112 -45,-2 -39,-54 -225,-60 -83,-3 -40,-270 -67,-281 -135,-61 -182,121 -205,-127 -4,-45 -448,-118 -498,-47 1,2 134,-232 -2,-253 -175,-28 -325,-19 -501,-19 0,-308 70,-306 -300,-283 -43,3 -54,97 -145,142l-17 21 -94 43 52 8zm-2799 -726c-148,84 -77,-53 -96,148 -11,108 -167,58 140,156 89,29 228,127 190,-109 -19,-117 -45,82 -41,-158 1,-112 -103,-87 -193,-37zm-1413 -410c-145,-100 -480,47 -161,118 39,8 140,-51 143,-58l18 -60zm209 -205c-1,-5 -336,-262 14,-300 67,-8 160,414 -14,300zm3494 -987c91,39 206,139 260,12 27,-65 -36,-120 27,-185 105,-107 -142,-138 -225,-107 -12,5 -162,-13 45,-67 179,-46 14,-253 -233,-99 -3,1 -579,-18 -152,312 11,8 36,208 275,117l3 17zm-107 637c-134,-366 -509,-104 -209,-398 136,-132 -89,-159 -204,-67 -2,2 -103,22 -211,27 70,-110 108,-235 115,-362 216,73 -72,366 365,219 149,-50 -22,78 320,93 71,3 75,282 57,284 -204,21 -70,195 -181,195l-52 9zm1133 230c-70,-251 57,-251 269,-256 64,-2 175,191 -86,162 -41,-4 -180,106 -183,94zm316 -341c-96,-38 -90,-250 123,-203 127,28 573,-191 540,123 -13,132 -559,-16 -564,195 -4,132 -82,-108 -99,-115zm516 -859c-15,-13 -226,-53 -195,105 63,327 120,87 198,285 81,208 240,-178 214,-231 -253,-22 -90,-55 -217,-159zm26 -261c-55,38 -180,-70 24,-188 126,-73 -199,-309 150,-299 158,5 -44,330 16,430 39,64 44,291 -190,57zm-961 210c211,-241 175,-32 149,-402 -8,-118 188,-258 204,-87 5,47 155,107 147,-60 -3,-62 222,-191 222,18 0,239 373,200 -295,235 -24,2 -162,146 0,253 122,80 192,296 -97,159 -12,-5 -268,47 -344,-99l14 -17zm-346 517c350,-223 598,-282 607,-206 8,78 -77,146 -103,248 -26,103 -51,146 -179,146 -129,0 -291,-86 -291,-86l-34 -102zm-94 1691c-69,-153 -128,-102 -69,-247 60,-146 26,-129 60,-308 35,-179 -60,-274 94,-291 154,-17 325,171 325,171 0,0 -60,137 137,137 196,0 85,-43 111,-154 26,-111 154,-239 256,-239 103,0 154,-17 308,-9 153,9 299,103 359,214 59,111 222,214 -52,214 -273,0 -615,76 -495,145 119,68 239,68 341,42 103,-25 171,-213 308,-42 137,171 111,196 111,333 0,137 111,274 128,504 18,231 18,470 -119,368 -137,-103 -462,-410 -462,-410l69 324c0,0 -188,-85 -308,-171 -119,-85 -231,-179 -231,-231 0,-51 -25,-392 -25,-392 0,0 -137,247 -325,196 -188,-51 -290,-145 -290,-145l-43 -188 -188 179zm-530 -273c-25,-111 -119,-231 -8,-393 111,-163 119,-256 213,-376 94,-120 154,-188 282,-171 128,17 274,-8 316,-77 43,-68 197,-213 214,-77 17,137 17,222 -188,282 -205,60 -325,-34 -385,145 -59,180 -93,445 -93,504 0,60 -120,180 -120,180l-231 -17zm-3007 -1384c0,68 60,248 -26,256 -85,9 -341,-145 -231,60 112,205 197,401 197,401 0,0 -410,402 -214,402 197,0 205,-282 351,-367 145,-86 299,-163 299,-163 0,0 -51,-111 -120,-188 -68,-77 -256,-401 -256,-401zm1589 1307c-145,-17 -103,-94 51,-273 154,-180 137,-436 248,-615 22,-37 39,-63 52,-82 30,-11 59,-23 88,-37 23,6 56,17 108,24 171,26 324,-76 504,77 179,154 427,462 222,402 -205,-60 -461,-265 -572,-188 -112,77 -17,77 170,248 188,171 171,316 163,401 -9,86 -257,675 -274,393 -17,-282 128,-692 -42,-504 -171,188 -103,368 -103,504 0,137 -231,231 -231,231 0,0 26,316 -76,316 -103,0 -299,128 -334,222 -34,94 -230,325 -324,239 -94,-85 -265,-230 -274,-170 -8,60 0,290 -111,435 -111,146 -290,163 -307,291 -17,128 -239,290 -291,256 -51,-34 -179,-179 -179,-179 0,0 -128,-231 -9,-308 120,-77 248,-316 179,-316 -68,0 -384,359 -384,359 0,0 -154,111 -248,171 -94,59 -563,77 -410,-86 154,-162 342,-487 342,-487 0,0 -453,581 -444,402 8,-179 85,-137 265,-496 179,-358 111,-418 239,-521 128,-102 136,-111 171,-307 34,-197 -52,-257 111,-334 162,-77 350,86 316,171 -34,86 -197,188 -60,248 137,60 197,51 273,154 77,102 9,85 180,34 171,-51 367,-60 504,-197 137,-136 487,-478 487,-478zm1478 -3588c-120,74 -367,107 -367,331 0,224 -180,565 -180,565 0,0 -273,41 -154,283 120,213 684,153 855,213 171,60 247,197 299,214 51,17 222,-128 43,-248 -180,-120 -257,-273 -257,-273l282 68c0,0 -60,-85 0,-162 60,-77 197,34 197,34l119 -163 274 18 -17 -274c0,0 196,0 162,103 -34,102 145,239 316,111 171,-128 273,-299 273,-299 0,0 -68,77 -145,-128 -77,-205 -136,-385 -213,-428 -77,-42 -214,-222 -325,-34 -111,188 -60,359 -34,410 26,52 -9,402 -60,231 -51,-171 60,-418 -111,-299 -171,120 -282,282 -299,214 -17,-69 34,-333 34,-333l-478 367c0,0 187,-291 213,-385 26,-94 -188,-136 -188,-136l-239 0z"/>
   <path class="fil1" d="M17684 2000c378,0 721,154 971,404l1 1 1 -1c250,249 404,593 404,973l0 7030c0,378 -154,722 -404,971l-2 3c-250,249 -593,403 -971,403 -378,0 -721,-154 -971,-403l-2 -3c-249,-249 -404,-593 -404,-971l0 -7030c0,-380 155,-724 404,-973l46 -42c245,-225 571,-362 927,-362zm0 623c414,0 753,339 753,754l0 7030c0,415 -339,753 -753,753 -414,0 -753,-338 -753,-753l0 -7030c0,-415 339,-754 753,-754zm0 13896c685,0 1305,277 1754,726 449,449 727,1070 727,1755 0,685 -278,1305 -727,1754 -449,449 -1069,727 -1754,727 -685,0 -1305,-278 -1754,-727 -449,-449 -727,-1069 -727,-1754 0,-685 278,-1306 727,-1755 449,-449 1069,-726 1754,-726zm-11580 -9099c-293,293 -293,772 0,1065l4971 4972c293,292 773,292 1066,0 293,-293 293,-773 0,-1066l-4972 -4971c-292,-293 -772,-293 -1065,0zm17123 17123c-293,293 -293,772 0,1066l4972 4971c292,292 772,292 1065,0 293,-293 293,-773 0,-1066l-4972 -4971c-292,-293 -772,-293 -1065,0zm6037 -17123c293,293 293,772 0,1065l-4971 4972c-293,292 -773,292 -1066,0 -293,-293 -293,-773 0,-1066l4972 -4971c292,-293 772,-293 1065,0zm-17123 17123c293,293 293,772 0,1066l-4972 4971c-292,292 -772,292 -1065,0 -293,-293 -293,-773 0,-1066l4972 -4971c292,-293 772,-293 1065,0zm21919 -5543c0,414 -339,753 -753,753l-7030 0c-415,0 -754,-339 -754,-753 0,-415 339,-753 754,-753l7030 0c414,0 753,338 753,753zm-24215 0c0,414 -339,753 -754,753l-7030 0c-414,0 -753,-339 -753,-753 0,-415 339,-753 753,-753l7030 0c415,0 754,338 754,753zm7839 7839c414,0 753,339 753,753l0 7031c0,414 -339,753 -753,753 -414,0 -753,-339 -753,-753l0 -7031c0,-414 339,-753 753,-753zm0 -10944c417,0 817,84 1185,236 382,158 723,388 1008,673l3 3c284,285 515,626 672,1008 153,368 237,768 237,1185 0,416 -84,817 -237,1185 -159,384 -389,727 -672,1010 -284,284 -627,514 -1011,673 -368,152 -768,237 -1185,237 -416,0 -817,-85 -1185,-237 -384,-159 -727,-389 -1010,-673 -284,-283 -514,-626 -673,-1010 -153,-368 -237,-769 -237,-1185 0,-417 84,-817 237,-1186 159,-383 389,-726 673,-1010 283,-283 626,-514 1010,-673 368,-152 769,-236 1185,-236zm-12423 -7942c0,-353 134,-706 402,-974 269,-269 621,-403 974,-403 352,0 705,134 974,403l4971 4971 -1 1 1 2c268,268 403,620 403,971 0,332 -121,665 -361,928 -14,16 -31,36 -47,51 -268,265 -618,397 -969,397 -332,0 -666,-120 -928,-361l-46 -41 -4971 -4971c-268,-269 -402,-622 -402,-974zm17123 17123c0,-350 132,-701 397,-969l5 -5 1 1 2 -1c268,-268 620,-403 971,-403 352,0 706,134 973,403l4972 4971c268,268 402,621 402,974 0,352 -134,706 -402,974 -268,268 -621,402 -974,402 -352,0 -706,-134 -974,-402l-4971 -4971c-268,-269 -402,-622 -402,-974zm7321 -18097c268,268 402,621 402,974 0,352 -134,705 -402,974l-4971 4971c-268,268 -622,402 -974,402 -350,0 -701,-132 -969,-397 -16,-17 -32,-34 -47,-51 -240,-263 -360,-596 -360,-928 0,-351 134,-703 402,-971l1 -2 -1 -1 4971 -4971c269,-269 622,-403 974,-403 353,0 706,134 974,403zm-17118 17128c265,268 398,619 398,969 0,352 -135,705 -403,974l-4971 4971c-268,268 -622,402 -974,402 -353,0 -706,-134 -974,-402 -268,-268 -402,-622 -402,-974 0,-353 134,-706 402,-974l4971 -4971c269,-269 622,-403 974,-403 353,0 706,134 974,403l5 5zm22097 -5107c0,378 -155,721 -404,971l-1 1 1 1c-249,249 -594,404 -973,404l-7030 0c-378,0 -722,-155 -971,-404l-2 -2c-250,-250 -405,-593 -405,-971 0,-378 155,-722 405,-971l2 -3c249,-249 593,-404 971,-404l7030 0c379,0 724,155 973,404l42 47c225,245 362,571 362,927zm-24215 0c0,378 -155,721 -404,971l-3 2c-249,249 -593,404 -971,404l-7030 0c-378,0 -721,-155 -971,-404l-2 -2c-250,-250 -404,-593 -404,-971 0,-378 154,-722 404,-971l2 -3c250,-249 593,-404 971,-404l7030 0c378,0 722,155 971,404l3 3c249,249 404,593 404,971zm7215 7215c378,0 721,155 971,404l2 3c250,249 404,593 404,970l0 7031c0,378 -154,721 -404,971l-2 2c-250,249 -593,404 -971,404 -378,0 -721,-155 -971,-404l-2 -2c-249,-250 -404,-593 -404,-971l0 -7031c0,-377 155,-721 404,-970l2 -3c250,-249 593,-404 971,-404z"/>
  </g>
 </g>
</svg>
