<?xml version="1.0" encoding="UTF-8"?>
<!DOCTYPE svg PUBLIC "-//W3C//DTD SVG 1.1//EN" "http://www.w3.org/Graphics/SVG/1.1/DTD/svg11.dtd">
<!-- Creator: CorelDRAW X8 -->
<svg xmlns="http://www.w3.org/2000/svg" xml:space="preserve" width="145px" height="42px" version="1.1" style="shape-rendering:geometricPrecision; text-rendering:geometricPrecision; image-rendering:optimizeQuality; fill-rule:evenodd; clip-rule:evenodd"
viewBox="0 0 145000 42000"
 xmlns:xlink="http://www.w3.org/1999/xlink">
 <defs>
  <style type="text/css">
   <![CDATA[
    .fil0 {fill:white}
   ]]>
  </style>
 </defs>
 <g id="Layer_x0020_1">
  <metadata id="CorelCorpID_0Corel-Layer"/>
  <path class="fil0" d="M21604 8083c3567,0 6796,1446 9133,3784 -1560,1560 -3121,3120 -4681,4681l0 -3419c-5934,-3366 -13494,886 -13494,7871 0,4994 4048,9042 9042,9042 4329,0 7946,-3042 8833,-7105l-5290 0 -3540 3540c-1435,20 -2865,-594 -3876,-1605l5810 -5810c3612,0 7224,0 10835,0 95,632 145,1279 145,1938 0,7134 -5783,12917 -12917,12917 -7134,0 -12917,-5783 -12917,-12917 0,-7134 5783,-12917 12917,-12917zm43268 20724c-807,902 -1947,1599 -3429,2098 -1477,497 -3112,744 -4906,744 -1891,0 -3542,-383 -4967,-1148 -1421,-763 -2517,-1876 -3291,-3331 -1624,-3057 -1623,-8675 -92,-11765 734,-1482 1793,-2612 3174,-3393 1384,-784 3004,-1177 4860,-1177 2586,0 4606,571 6065,1717 1459,1146 2320,2815 2586,5002l-4369 0c-199,-1162 -642,-2015 -1324,-2553 -682,-539 -1625,-807 -2826,-807 -1522,0 -2687,532 -3484,1600 -1689,2262 -1681,8657 86,10868 869,1086 2141,1628 3817,1628 1692,0 2893,-332 3613,-1002l0 -3498 -4088 0 0 -3075 8575 0 0 8092zm11708 -4846l-3577 0 0 7404 -4493 0 0 -20246 8100 0c4037,0 8054,1440 8054,6122 0,2803 -1332,4595 -3889,5662l4717 8267 0 195 -4824 0 -4088 -7404zm-3577 -3388l3623 0c1942,0 3552,-868 3552,-3000 0,-2214 -1532,-3066 -3568,-3066l-3607 0 0 6066zm31841 6373c-1596,3164 -4641,4703 -8115,4703 -3460,0 -6507,-1541 -8130,-4669 -1610,-3105 -1609,-8328 -21,-11438 1613,-3158 4637,-4707 8120,-4707 3484,0 6508,1549 8121,4707 1580,3095 1590,8301 25,11404zm-4639 -11010c-822,-1106 -1989,-1656 -3507,-1656 -1507,0 -2669,544 -3490,1637 -1723,2294 -1672,8290 -10,10603 820,1141 1993,1713 3531,1713 1508,0 2663,-550 3476,-1652 1676,-2274 1682,-8377 0,-10645zm16776 10408l4937 -15225 5002 0 -7588 20246 -4686 0 -7563 -20246 4987 0 4911 15225zm25955 -3778l-8621 0 0 5439 10119 0 0 3360 -14610 0 0 -20246 14579 0 0 3388 -10088 0 0 4813 8621 0 0 3246zm-121332 -22604c5809,0 11069,2355 14876,6162 3807,3807 6162,9067 6162,14876 0,5809 -2355,11069 -6162,14876 -3807,3807 -9067,6162 -14876,6162 -5809,0 -11069,-2355 -14876,-6162 -3807,-3807 -6162,-9067 -6162,-14876 0,-5809 2355,-11069 6162,-14876 3807,-3807 9067,-6162 14876,-6162zm13729 7309c-3513,-3513 -8367,-5686 -13729,-5686 -5361,0 -10215,2173 -13728,5686 -3513,3513 -5687,8368 -5687,13729 0,5361 2174,10216 5687,13729 3513,3512 8367,5686 13728,5686 5362,0 10216,-2174 13729,-5686 3513,-3513 5686,-8368 5686,-13729 0,-5361 -2173,-10216 -5686,-13729z"/>
 </g>
</svg>
