<?xml version="1.0" encoding="UTF-8"?>
<!DOCTYPE svg PUBLIC "-//W3C//DTD SVG 1.1//EN" "http://www.w3.org/Graphics/SVG/1.1/DTD/svg11.dtd">
<!-- Creator: CorelDRAW X8 -->
<svg xmlns="http://www.w3.org/2000/svg" xml:space="preserve" width="280px" height="280px" version="1.1" style="shape-rendering:geometricPrecision; text-rendering:geometricPrecision; image-rendering:optimizeQuality; fill-rule:evenodd; clip-rule:evenodd"
viewBox="0 0 2800000 2800000"
 xmlns:xlink="http://www.w3.org/1999/xlink">
 <defs>
  <style type="text/css">
   <![CDATA[
    .fil0 {fill:white}
   ]]>
  </style>
 </defs>
 <g id="Layer_x0020_1">
  <metadata id="CorelCorpID_0Corel-Layer"/>
  <path class="fil0" d="M1253295 1877290l-18158 0 -186240 -236223 157343 -199559 193751 245764 193755 -245764 157343 199559 -186240 236223 -18159 0c-97798,0 -195596,0 -293395,0zm293378 -954577l18176 0 603129 764970 -21745 21725 -275809 0 -470433 -596660 -470430 596660 -275808 0 -21745 -21725 603129 -764970 18175 0c97787,0 195574,0 293361,0zm268788 237626l54997 -69744c361322,0 558223,0 919541,0l-164064 208438 -605172 0 -47974 60851 -157328 -199545zm-830936 0l-54998 -69744c-361321,0 -558202,0 -919524,0l164067 208438 605153 0 47973 60851 157329 -199545z"/>
 </g>
</svg>
