<?xml version="1.0" encoding="UTF-8"?>
<!DOCTYPE svg PUBLIC "-//W3C//DTD SVG 1.1//EN" "http://www.w3.org/Graphics/SVG/1.1/DTD/svg11.dtd">
<!-- Creator: CorelDRAW X8 -->
<svg xmlns="http://www.w3.org/2000/svg" xml:space="preserve" width="700px" height="135px" version="1.1" style="shape-rendering:geometricPrecision; text-rendering:geometricPrecision; image-rendering:optimizeQuality; fill-rule:evenodd; clip-rule:evenodd"
viewBox="0 0 7000000 1349995"
 xmlns:xlink="http://www.w3.org/1999/xlink">
 <defs>
  <style type="text/css">
   <![CDATA[
    .fil0 {fill:white}
   ]]>
  </style>
 </defs>
 <g id="Layer_x0020_1">
  <metadata id="CorelCorpID_0Corel-Layer"/>
  <path class="fil0" d="M3344046 245013c40417,0 80816,0 121215,0 41500,0 82999,0 124515,0 0,64919 0,129869 0,194805 0,221723 0,443475 0,665181 -81901,0 -163814,0 -245730,0 0,-286656 0,-573327 0,-859986zm-1740385 636284c-236194,0 -472405,0 -708585,0 -58555,74563 -117082,149139 -175623,223688 -92024,0 -184014,0 -276024,0 195874,-249509 391714,-499014 587600,-748523 15928,-20276 33559,-37862 52367,-52628 49981,-39240 107702,-58836 165966,-58836 58277,0 115999,19596 165965,58836 18823,14783 36454,32352 52365,52628 195888,249509 391745,499014 587616,748523 -92024,0 -184013,0 -276023,0 -58541,-74549 -117082,-149125 -175624,-223688zm-564179 -183985c139929,0 279830,0 419774,0 -54082,-68882 -108181,-137764 -162249,-206660 -5077,-6455 -10418,-11843 -15866,-16115 -10295,-8110 -21331,-12167 -31779,-12167 -10418,0 -21470,4057 -31794,12167 -5434,4257 -10788,9660 -15837,16115 -54082,68896 -108167,137778 -162249,206660zm4522491 -452299c330959,0 661915,0 992871,0 0,44920 0,89841 0,134776 0,53668 3870,87565 -72192,131479 -210252,121371 -418323,246677 -627506,370029 203564,0 407146,0 610710,0 110705,0 88988,67008 88988,223702 -330956,0 -661912,0 -992871,0 -233765,0 -425022,-193487 -425022,-429976 0,-236520 191257,-430010 425022,-430010zm607924 223718c-202652,0 -405273,0 -607924,0 -55817,0 -106759,23267 -143816,60772 -37072,37491 -60058,89020 -60058,145503 0,56483 22986,108028 60058,145519 20744,20991 45833,37522 73712,48016 226023,-133290 452004,-266533 678028,-399810zm-1988885 -223718c316886,0 633788,0 950690,0 -69424,59904 -124297,136604 -158335,223718 -264118,0 -528251,0 -792355,0 -55848,0 -106775,23267 -143832,60772 -37055,37491 -60058,89020 -60058,145503 0,56483 23003,108028 60058,145519 37057,37491 87984,60772 143832,60772 264104,0 528237,0 792355,0 34024,87146 88911,163797 158321,223702 -316903,0 -633790,0 -950676,0 -233764,0 -425024,-193487 -425024,-429976 0,-236520 191260,-430010 425024,-430010zm-1538042 748505c195854,-249491 391711,-498997 587583,-748505 -91990,0 -184014,0 -276007,0 -160781,204774 -321528,409546 -482295,614333 -5046,6471 -10400,11826 -15834,16115 -10324,8095 -21362,12135 -31794,12135 -10434,0 -21487,-4040 -31796,-12135 -5431,-4272 -10772,-9658 -15849,-16115 -160767,-204787 -321514,-409559 -482281,-614333 -92007,0 -183999,0 -276020,0 195871,249508 391742,499014 587613,748505 15914,20293 33543,37848 52367,52645 49967,39209 107686,58836 165966,58836 58263,0 115982,-19627 165966,-58836 18808,-14797 36436,-32352 52381,-52645z"/>
 </g>
</svg>
