<?xml version="1.0" encoding="UTF-8"?>
<!DOCTYPE svg PUBLIC "-//W3C//DTD SVG 1.1//EN" "http://www.w3.org/Graphics/SVG/1.1/DTD/svg11.dtd">
<!-- Creator: CorelDRAW X8 -->
<svg xmlns="http://www.w3.org/2000/svg" xml:space="preserve" width="540px" height="53px" version="1.1" style="shape-rendering:geometricPrecision; text-rendering:geometricPrecision; image-rendering:optimizeQuality; fill-rule:evenodd; clip-rule:evenodd"
viewBox="0 0 5400000 530000"
 xmlns:xlink="http://www.w3.org/1999/xlink">
 <defs>
  <style type="text/css">
   <![CDATA[
    .fil0 {fill:white}
   ]]>
  </style>
 </defs>
 <g id="Layer_x0020_1">
  <metadata id="CorelCorpID_0Corel-Layer"/>
  <g id="_2723593162800">
   <path class="fil0" d="M770636 524577l-9876 0 -101287 -128472 85572 -108533 105375 133662 105375 -133662 85573 108533 -101291 128472 -9876 0c-53186,0 -106376,0 -159565,0zm159557 -519154l9884 0 328020 416033 -11826 11817 -150004 0 -255847 -324499 -255850 324499 -150001 0 -11826 -11817 328017 -416033 9887 0c53181,0 106365,0 159546,0zm146183 129234l29911 -37933c196509,0 393047,0 589556,0l-89229 113363 -418582 0 -26093 33092 -85563 -108522zm-451914 0l-29909 -37933c-196509,0 -393046,0 -589556,0l89230 113363 418581 0 26090 33092 85564 -108522z"/>
   <path class="fil0" d="M3455695 5431c24397,0 48784,0 73173,0 25053,0 50103,0 75164,0 0,39189 0,78398 0,117598 0,133847 0,267713 0,401548 -49439,0 -98890,0 -148337,0 0,-173044 0,-346099 0,-519146zm-1050620 384104c-142583,0 -285177,0 -427752,0 -35348,45011 -70679,90031 -106018,135034 -55554,0 -111085,0 -166627,0 118242,-150619 236464,-301238 354717,-451860 9615,-12240 20256,-22856 31609,-31768 30175,-23689 65018,-35518 100191,-35518 35181,0 70024,11829 100188,35518 11364,8923 22005,19528 31612,31768 118250,150622 236483,301241 354725,451860 -55551,0 -111085,0 -166627,0 -35339,-45003 -70679,-90023 -106018,-135034zm-340581 -111065c84473,0 168926,0 253407,0 -32647,-41581 -65305,-83163 -97946,-124756 -3064,-3894 -6287,-7148 -9578,-9725 -6214,-4898 -12875,-7345 -19182,-7345 -6290,0 -12960,2447 -19194,7345 -3279,2568 -6514,5831 -9558,9725 -32650,41593 -65299,83175 -97949,124756zm2730099 -273039c199789,0 399577,0 599366,0 0,27116 0,54236 0,81360 0,32397 2336,52861 -43582,79370 -126922,73268 -252528,148910 -378806,223374 122885,0 245781,0 368669,0 66830,0 53719,40453 53719,135042 -199789,0 -399577,0 -599366,0 -141118,0 -256576,-116801 -256576,-259563 0,-142781 115458,-259583 256576,-259583zm366985 135051c-122335,0 -244653,0 -366985,0 -33696,0 -64449,14046 -86820,36686 -22379,22632 -36255,53740 -36255,87838 0,34095 13876,65214 36255,87843 12524,12670 27669,22651 44498,28987 136446,-80465 272861,-160898 409307,-241354zm-1200633 -135051c191297,0 382601,0 573906,0 -41910,36162 -75036,82463 -95584,135051 -159441,0 -318890,0 -478322,0 -33712,0 -64457,14046 -86825,36686 -22371,22632 -36258,53740 -36258,87838 0,34095 13887,65214 36258,87843 22368,22631 53113,36686 86825,36686 159432,0 318881,0 478322,0 20540,52608 53674,98881 95573,135042 -191305,0 -382598,0 -573895,0 -141117,0 -256572,-116801 -256572,-259563 0,-142781 115455,-259583 256572,-259583zm-928472 451849c118233,-150611 236466,-301230 354708,-451849 -55533,0 -111084,0 -166618,0 -97058,123616 -194097,247230 -291146,370854 -3048,3907 -6279,7138 -9559,9729 -6233,4887 -12895,7325 -19193,7325 -6299,0 -12972,-2438 -19194,-7325 -3279,-2580 -6502,-5831 -9569,-9729 -97047,-123624 -194089,-247238 -291139,-370854 -55542,0 -111073,0 -166626,0 118245,150619 236486,301238 354728,451849 9604,12251 20248,22847 31612,31782 30161,23666 65007,35515 100188,35515 35172,0 70016,-11849 100188,-35515 11352,-8935 21996,-19531 31620,-31782z"/>
  </g>
 </g>
</svg>
