<?xml version="1.0" encoding="UTF-8"?>
<!DOCTYPE svg PUBLIC "-//W3C//DTD SVG 1.1//EN" "http://www.w3.org/Graphics/SVG/1.1/DTD/svg11.dtd">
<!-- Creator: CorelDRAW X8 -->
<svg xmlns="http://www.w3.org/2000/svg" xml:space="preserve" width="164px" height="27px" version="1.1" style="shape-rendering:geometricPrecision; text-rendering:geometricPrecision; image-rendering:optimizeQuality; fill-rule:evenodd; clip-rule:evenodd"
viewBox="0 0 164000 27000"
 xmlns:xlink="http://www.w3.org/1999/xlink">
 <defs>
  <style type="text/css">
   <![CDATA[
    .fil0 {fill:white}
   ]]>
  </style>
 </defs>
 <g id="Layer_x0020_1">
  <metadata id="CorelCorpID_0Corel-Layer"/>
  <path class="fil0" d="M153420 5910c2161,0 4166,672 5817,1817 0,-606 0,-1212 0,-1817 1467,0 2934,0 4400,0 0,3406 0,6811 0,10217 0,3406 0,6811 0,10217 -1466,0 -2933,0 -4400,0 0,-605 0,-1211 0,-1817 -1651,1145 -3656,1817 -5817,1817 -5643,0 -10217,-4574 -10217,-10217 0,-5643 4574,-10217 10217,-10217zm-129172 -5254l4395 0 0 4395 -4395 0 0 -4395zm51221 25689c1759,0 3517,0 5276,0 0,-1146 0,-2291 0,-3436 -1759,0 -3517,0 -5276,0 0,1145 0,2290 0,3436zm5286 -21018c-1762,0 -3524,0 -5286,0 0,-1557 0,-3114 0,-4671 2742,0 5756,-1 8499,-1l9762 16640c0,-5931 0,-10708 0,-16640 1758,0 3516,0 5275,0 0,8563 0,17126 0,25689l-5834 0 -12390 -21003c-11,-18 -5,-15 -26,-15l0 1zm-10 15766c0,-1146 0,-2293 0,-3440 -1759,0 -3517,0 -5276,0 0,1147 0,2294 0,3440 1759,0 3517,0 5276,0zm0 -5256c0,-1146 0,-2293 0,-3439 -1759,0 -3517,0 -5276,0 0,1146 0,2293 0,3439 1759,0 3517,0 5276,0zm0 -5255c0,-1147 0,-2293 0,-3440 -1759,0 -3517,0 -5276,0 0,1147 0,2293 0,3440 1759,0 3517,0 5276,0zm-18165 -4672c2161,0 4166,672 5817,1817 0,-606 0,-1212 0,-1817 1466,0 2933,0 4399,0 0,3406 0,6811 0,10217 0,3406 0,6811 0,10217 -1466,0 -2933,0 -4399,0 0,-605 0,-1211 0,-1817 -1651,1145 -3656,1817 -5817,1817 -5643,0 -10217,-4574 -10217,-10217 0,-5643 4574,-10217 10217,-10217zm-31509 0c1605,0 3210,0 4814,0 1989,4857 3978,9715 5968,14573 1988,-4858 3978,-9715 5966,-14573 1605,0 3210,0 4814,0 -2789,6811 -5578,13623 -8367,20434 -4,0 -9,0 -13,0 -1600,0 -3201,0 -4801,0 -4,0 -8,0 -12,0 -2790,-6811 -5579,-13623 -8368,-20434l-1 0zm31509 4397c3214,0 5820,2606 5820,5820 0,3215 -2606,5821 -5820,5821 -3215,0 -5821,-2606 -5821,-5821 0,-3214 2606,-5820 5821,-5820zm-62217 -9651c1758,0 3517,0 5276,0 0,1145 0,2290 0,3435 -1759,0 -3518,0 -5276,0 0,-1145 0,-2290 0,-3435zm5276 5251c0,1147 0,2293 0,3440 -1759,0 -3518,0 -5276,0 0,-1147 0,-2293 0,-3440 1758,0 3517,0 5276,0zm0 5255c0,1147 0,2294 0,3440 -1759,0 -3518,0 -5276,0 0,-1146 0,-2293 0,-3440 1758,0 3517,0 5276,0zm0 5256c0,1146 0,2293 0,3440 -1759,0 -3518,0 -5276,0 0,-1147 0,-2294 0,-3440 1758,0 3517,0 5276,0zm15568 5255c0,1558 0,3114 0,4672 -7500,0 -13345,0 -20844,0 0,-1558 0,-3114 0,-4672 6948,0 13896,0 20844,0zm3041 -15763c1467,0 2933,0 4400,0 0,6811 0,13623 0,20434 -1467,0 -2933,0 -4400,0 0,-6811 0,-13623 0,-20434zm87806 0c5644,0 10218,4574 10218,10217 0,5643 -4574,10217 -10218,10217 -5642,0 -10217,-4574 -10217,-10217 0,-5643 4575,-10217 10217,-10217zm0 4397c3215,0 5821,2606 5821,5820 0,3215 -2606,5821 -5821,5821 -3214,0 -5820,-2606 -5820,-5821 0,-3214 2606,-5820 5820,-5820zm9858 -4397c1604,0 3208,0 4813,0 1989,4857 3979,9715 5968,14573 1989,-4858 3978,-9715 5967,-14573 1605,0 3210,0 4814,0 -2789,6811 -5579,13623 -8368,20434 -4,0 -8,0 -13,0 -1600,0 -3200,0 -4801,0 -4,0 -8,0 -12,0 -2790,-6811 -5579,-13623 -8368,-20434zm31508 4397c3215,0 5820,2606 5820,5820 0,3215 -2605,5821 -5820,5821 -3214,0 -5820,-2606 -5820,-5821 0,-3214 2605,-5820 5820,-5820z"/>
 </g>
</svg>
