<?xml version="1.0" encoding="UTF-8"?>
<!DOCTYPE svg PUBLIC "-//W3C//DTD SVG 1.1//EN" "http://www.w3.org/Graphics/SVG/1.1/DTD/svg11.dtd">
<!-- Creator: CorelDRAW X8 -->
<svg xmlns="http://www.w3.org/2000/svg" xml:space="preserve" width="120px" height="38px" version="1.1" style="shape-rendering:geometricPrecision; text-rendering:geometricPrecision; image-rendering:optimizeQuality; fill-rule:evenodd; clip-rule:evenodd"
viewBox="0 0 120000 38000"
 xmlns:xlink="http://www.w3.org/1999/xlink">
 <defs>
  <style type="text/css">
   <![CDATA[
    .fil0 {fill:white}
   ]]>
  </style>
 </defs>
 <g id="Layer_x0020_1">
  <metadata id="CorelCorpID_0Corel-Layer"/>
  <path class="fil0" d="M18357 1142c9863,0 17858,7996 17858,17858 0,9862 -7995,17858 -17858,17858 -9862,0 -17858,-7996 -17858,-17858 0,-9862 7996,-17858 17858,-17858zm23143 6864l0 7509 1634 0 0 -2700 1688 0c1508,0 2668,-759 2668,-2394 0,-1656 -1129,-2415 -2753,-2415l-3237 0zm1634 1350l1477 0c728,0 1276,285 1276,1086 0,833 -548,1076 -1287,1076l-1466 0 0 -2162zm5453 -1350l0 7509 1635 0 0 -2942 1465 0c1076,0 1392,369 1498,1402 42,411 42,1160 232,1540l1708 0c-295,-274 -316,-1308 -358,-1783 -64,-738 -274,-1581 -1108,-1750 749,-285 1192,-970 1192,-1846 0,-1508 -1149,-2130 -2531,-2130l-3733 0zm1635 1297l1634 0c696,0 1382,148 1382,1012 0,929 -686,1066 -1456,1066l-1560 0 0 -2078zm11548 -1297l-5632 0 0 7509 5706 0 0 -1382 -4071 0 0 -1845 3670 0 0 -1297 -3670 0 0 -1635 3997 0 0 -1350zm6760 2236c-32,-1677 -1308,-2394 -2890,-2394 -1751,0 -2890,886 -2890,2246 0,1529 1171,1835 2394,2183 1551,443 2057,549 2057,1139 0,622 -527,1002 -1392,1002 -1002,0 -1666,-401 -1698,-1413l-1634 0c20,1698 1223,2679 3258,2679 1529,0 3090,-654 3090,-2426 0,-1255 -854,-1772 -2193,-2152 -1498,-422 -2300,-474 -2300,-1128 0,-538 454,-854 1213,-854 876,0 1361,390 1424,1118l1561 0zm7994 2373l-1634 0c-138,1097 -728,1687 -1720,1687 -1212,0 -1982,-991 -1982,-2542 0,-1254 559,-2552 2004,-2552 885,0 1497,485 1666,1308l1613 0c-126,-1550 -1444,-2690 -3248,-2690 -2299,0 -3691,1741 -3691,3924 0,2373 1445,3944 3628,3944 2056,0 3195,-1244 3364,-3079zm1171 -4609l0 7509 1635 0 0 -2942 1466 0c1075,0 1392,369 1497,1402 42,411 42,1160 232,1540l1708 0c-295,-274 -316,-1308 -358,-1783 -64,-738 -274,-1581 -1107,-1750 748,-285 1191,-970 1191,-1846 0,-1508 -1149,-2130 -2531,-2130l-3733 0zm1635 1297l1634 0c696,0 1382,148 1382,1012 0,929 -686,1066 -1455,1066l-1561 0 0 -2078zm7572 -1297l-1656 0 0 7509 1656 0 0 -7509zm1466 0l0 7509 1635 0 0 -2700 1687 0c1508,0 2668,-759 2668,-2394 0,-1656 -1128,-2415 -2752,-2415l-3238 0zm1635 1350l1476 0c728,0 1276,285 1276,1086 0,833 -548,1076 -1287,1076l-1465 0 0 -2162zm10968 -1350l-6170 0 0 1403 2257 0 0 6106 1656 0 0 -6106 2257 0 0 -1403zm2520 0l-1656 0 0 7509 1656 0 0 -7509zm4851 -180c-2246,0 -3723,1561 -3723,3945 0,2352 1487,3923 3713,3923 2204,0 3691,-1582 3691,-3923 0,-2352 -1487,-3945 -3681,-3945zm-21 1351c1255,0 2036,980 2036,2562 0,1603 -770,2595 -2015,2595 -1276,-11 -2056,-981 -2056,-2595 0,-1561 791,-2562 2035,-2562zm4830 6338l1593 0 0 -5042 3111 5042 1645 0 0 -7509 -1581 0 0 5031 -3091 -5031 -1677 0 0 7509zm-71651 15600l5256 0c4033,0 6295,-2318 6295,-6497 0,-4198 -2265,-6497 -6295,-6497l-5256 0 0 12994zm2829 -2373l0 -8249 2080 0c2573,0 3778,1515 3778,4125 0,2609 -1171,4124 -3778,4124l-2080 0zm16552 -10932c-3887,0 -6442,2701 -6442,6826 0,4070 2573,6789 6424,6789 3814,0 6387,-2738 6387,-6789 0,-4070 -2573,-6826 -6369,-6826zm-37 2336c2172,0 3523,1698 3523,4435 0,2774 -1334,4497 -3486,4490 -2207,-8 -3559,-1698 -3559,-4490 0,-2701 1369,-4435 3522,-4435zm19967 5950l-2829 0c-238,1898 -1260,2920 -2976,2920 -2098,0 -3430,-1716 -3430,-4398 0,-2172 967,-4417 3467,-4417 1533,0 2592,840 2884,2263l2792 0c-219,-2683 -2500,-4654 -5621,-4654 -3978,0 -6387,3012 -6387,6789 0,4107 2500,6826 6278,6826 3558,0 5529,-2154 5822,-5329zm11570 -7975l-10676 0 0 2427 3905 0 0 10567 2866 0 0 -10567 3905 0 0 -2427zm7373 -311c-3887,0 -6442,2701 -6442,6826 0,4070 2572,6789 6424,6789 3814,0 6387,-2738 6387,-6789 0,-4070 -2573,-6826 -6369,-6826zm-37 2336c2172,0 3523,1698 3523,4435 0,2774 -1334,4497 -3486,4490 -2207,-8 -3559,-1698 -3559,-4490 0,-2701 1369,-4435 3522,-4435zm8468 -2025l0 12994 2829 0 0 -5092 2537 0c1861,0 2411,640 2591,2427 72,711 73,2008 402,2665l2956 0c-511,-475 -549,-2264 -620,-3085 -110,-1276 -475,-2737 -1916,-3029 1295,-493 2062,-1679 2062,-3194 0,-2610 -1992,-3686 -4380,-3686l-6461 0zm2829 2244l2829 0c1204,0 2391,256 2391,1752 0,1606 -1190,1843 -2518,1843l-2702 0 0 -3595zm-97266 -11633c3950,0 7173,3109 7357,7014 276,-84 558,-152 846,-204 790,-140 1538,-142 1824,-78 686,154 1232,779 1237,1527 5,754 -534,1384 -1245,1530 -494,102 -931,9 -1526,153 -1855,453 -3233,2126 -3233,4121 0,2342 1899,4241 4242,4241 1898,0 3505,-1247 4046,-2968 231,-736 195,-1381 195,-2122l0 -11652c0,-858 703,-1562 1562,-1562l0 0c860,0 1563,703 1563,1562l0 11952c0,755 1,1329 -166,2107 -715,3319 -3667,5808 -7200,5808 -3951,0 -7174,-3109 -7358,-7014 -276,84 -558,152 -846,203 -789,141 -1538,142 -1824,78 -686,-153 -1232,-778 -1237,-1526 -5,-754 534,-1384 1245,-1530 494,-102 931,-9 1526,-154 1856,-452 3233,-2126 3233,-4120 0,-2342 -1899,-4241 -4241,-4241 -1899,0 -3506,1247 -4047,2967 -231,736 -194,1381 -194,2123l0 11652c0,858 -704,1562 -1563,1562l0 0c-859,0 -1563,-703 -1563,-1562l0 -11952c0,-756 -1,-1329 166,-2107 715,-3320 3667,-5808 7201,-5808z"/>
 </g>
</svg>
