<?xml version="1.0" encoding="UTF-8"?>
<!DOCTYPE svg PUBLIC "-//W3C//DTD SVG 1.1//EN" "http://www.w3.org/Graphics/SVG/1.1/DTD/svg11.dtd">
<!-- Creator: CorelDRAW X8 -->
<svg xmlns="http://www.w3.org/2000/svg" xml:space="preserve" width="108px" height="149px" version="1.1" style="shape-rendering:geometricPrecision; text-rendering:geometricPrecision; image-rendering:optimizeQuality; fill-rule:evenodd; clip-rule:evenodd"
viewBox="0 0 108000 149001"
 xmlns:xlink="http://www.w3.org/1999/xlink">
 <defs>
  <style type="text/css">
   <![CDATA[
    .fil0 {fill:#33CCFF;fill-rule:nonzero}
   ]]>
  </style>
 </defs>
 <g id="Layer_x0020_1">
  <metadata id="CorelCorpID_0Corel-Layer"/>
  <path class="fil0" d="M54163 15095c-7500,0 -13579,6080 -13579,13580 0,2504 678,4850 1860,6864 64,-498 166,-989 304,-1469 312,-1090 810,-2126 1478,-3057l222 -243c641,-583 2629,-1003 5090,-1238 -992,-992 -1676,-2307 -1871,-3805 -1148,-8671 11971,-10171 13022,-1642 221,1793 -309,3512 -1344,4838 -156,201 -325,392 -504,574 2427,220 4398,641 5081,1282l112 113c1427,1565 1595,3375 1614,5028 1325,-2097 2093,-4581 2093,-7245l5 0c10,-7490 -6057,-13575 -13547,-13584l-36 4zm-21903 100076c-1355,0 -4073,2349 -5199,3352 -219,819 -730,1454 -1156,1901 3289,2596 13941,9271 16344,10168 1019,-297 2428,-1174 3688,-2188 1295,-1042 2324,-2013 2324,-2291 0,-310 -3653,-3132 -7551,-5949 -3666,-2650 -7380,-4993 -8450,-4993zm-6418 -1476c2058,-1666 4458,-3009 6418,-3009 2056,0 6762,2747 11059,5852 4866,3517 9427,7836 9427,9575 0,929 -536,2040 -1390,3150 1108,547 3087,1760 4119,1964 2511,-747 14747,-8122 18532,-11285 -4303,-4489 -7621,-10302 -11920,-14701 -234,-198 -448,-370 -639,-513 -759,584 -1957,1790 -2737,2575 -883,890 -2237,2346 -3379,3029 -181,113 -359,211 -537,292 -4591,2116 -13494,-65 -13494,-6216 0,-2459 5473,-7749 10098,-11750 -932,-455 -2607,-1106 -5597,-1928 -4727,-1296 -13430,5462 -17506,5462 -1770,0 -3649,-1305 -5825,-2817 -762,-529 -1872,-1300 -2714,-1769 -666,4581 147,18469 751,21024 814,642 3269,1239 4434,1838 293,-267 594,-526 900,-773zm16565 21428l-89 12c-142,17 -277,26 -400,26 -3385,0 -13071,-6760 -16616,-9681 -2226,-1601 -3852,-2973 -4151,-3688 -616,-1475 -238,-2384 680,-3769l-530 -188c-1978,-694 -4220,-1478 -4976,-3544 -612,-1670 -1956,-17186 -891,-23709 -9247,-9600 -14942,-22642 -14942,-36992 0,-29426 23940,-53365 53366,-53365 29425,0 53364,23939 53364,53365 0,14025 -5439,26803 -14319,36337 1312,7126 -495,23271 -560,23437 -1224,3148 -11281,8405 -13952,8876 -149,25 -298,41 -445,45 -4386,4369 -19746,13442 -22367,13442 -2692,0 -4999,-2228 -7359,-2939 -301,145 -697,378 -1082,606 -1304,768 -2904,1703 -4731,1729zm-23216 -48393c1797,156 3703,1479 5839,2961 1030,717 2757,1917 3348,2022 5250,-1060 11878,-7162 18611,-5306 3573,981 6351,1958 8036,3218 1471,-1188 2502,-1968 2665,-2060 2561,-1438 8661,-683 10030,-118 4739,1964 10758,4202 12261,4458 2751,-1079 5611,-4602 8845,-5495 8066,-8588 13015,-20136 13015,-32820 0,-26458 -21525,-47984 -47983,-47984l0 0c-26459,0 -47984,21526 -47984,47984 0,12842 5072,24520 13317,33140zm37351 7377c-588,1163 -2141,2665 -5716,5939 -1693,1550 -4174,3820 -4940,4805l13 64c1064,2047 5408,2110 7156,1553 119,-83 268,-204 438,-352 427,-415 1043,-1101 1495,-1603 1745,-1940 3710,-4125 6034,-4472 145,-25 290,-40 436,-44l3 0 2 0 3 0 2 -1 3 0 2 0 3 0 2 0c38,-2 76,-3 114,-3l0 0c1197,0 2377,732 4037,2486 4485,3931 10662,11374 12133,13639 300,464 587,935 827,1408 2799,-1070 8550,-4519 9583,-5848 531,-2311 1013,-15328 515,-20256 -837,538 -1853,1277 -2575,1802 -2857,2080 -4563,3236 -6182,3182 -2452,-109 -12030,-4029 -13926,-4815 -1069,-358 -5187,-574 -6123,-113 -493,290 -1757,1290 -3339,2629zm-9444 -37798l6097 -5305 -37 -6090c-4005,-245 -7663,-1897 -10500,-4735 -2944,-2943 -4765,-7012 -4765,-11504 0,-8986 7284,-16270 16270,-16270 8988,0 16273,7279 16264,16270l5 0c0,4492 -1822,8561 -4765,11504 -2573,2574 -6005,4289 -9828,4680l37 6149 5988 5198c137,-147 276,-292 418,-433 2944,-2945 7012,-4766 11504,-4766l36 0c4489,10 8550,1834 11487,4779 2934,2941 4747,7006 4742,11491l5 0c0,4493 -1822,8560 -4766,11504 -2943,2944 -7011,4765 -11504,4765 -4492,0 -8560,-1821 -11504,-4765 -2944,-2944 -4765,-7011 -4765,-11504 0,-3310 989,-6391 2687,-8960l-5665 -4917 -5795 5042c1646,2544 2601,5578 2598,8835l4 0c0,4493 -1821,8560 -4765,11504 -2943,2944 -7012,4765 -11504,4765 -4492,0 -8561,-1821 -11505,-4765 -2944,-2944 -4765,-7011 -4765,-11504 0,-8986 7284,-16270 16270,-16270l36 0c4487,10 8549,1834 11486,4779 170,170 337,345 499,523zm15135 18106c229,-1597 840,-3114 1784,-4424 73,-86 138,-163 217,-243 673,-613 2840,-1046 5479,-1273 -194,-155 -381,-321 -556,-497 -1185,-1184 -1918,-2823 -1918,-4630 0,-3612 2935,-6547 6547,-6547 3616,0 6548,2932 6548,6547 0,1807 -734,3446 -1918,4630l-5 0c-155,155 -317,301 -486,440 2743,199 5034,637 5783,1339l112 113c1272,1396 1520,2980 1561,4477 1258,-2059 1984,-4480 1984,-7070l5 0c5,-3745 -1511,-7141 -3964,-9600 -2451,-2457 -5840,-3980 -9584,-3984l-36 5c-3749,0 -7145,1520 -9601,3977 -2457,2457 -3978,5852 -3978,9602 0,2618 742,5064 2026,7138zm20473 1866c-29,-1489 201,-3402 -855,-4583 -616,-521 -4235,-747 -7933,-727 -3624,20 -7137,276 -7819,721 -923,1341 -1366,2940 -1269,4565l5 78c0,394 957,1135 1893,1766l378 -3469 2675 100 154 4591 8054 -81 -216 -4184 2670 -268 489 3251c877,-594 1769,-1309 1769,-1760l5 0zm-8920 -16789c-2134,0 -3856,1723 -3856,3856 0,1065 432,2030 1129,2727 697,697 1663,1130 2727,1130 1067,0 2033,-431 2730,-1127 694,-700 1127,-1665 1127,-2730 0,-2129 -1728,-3856 -3857,-3856zm-50545 14446c66,-494 169,-982 308,-1461 314,-1089 816,-2125 1489,-3060 950,-1118 4133,-1366 5503,-1491 -140,-118 -275,-243 -405,-373 -1181,-1184 -1911,-2818 -1911,-4617l5 -26c72,-3569 2990,-6421 6560,-6409l0 -107c3613,11 6537,2945 6524,6560 -6,1810 -743,3446 -1931,4624 -97,96 -197,190 -300,280 2690,204 4923,640 5655,1334l104 104c1553,1706 1567,3682 1550,5490 1430,-2151 2264,-4733 2264,-7509l5 0c4,-3745 -1512,-7141 -3965,-9600 -2451,-2457 -5840,-3980 -9583,-3984l-36 5c-7499,0 -13579,6080 -13579,13579 0,2420 634,4692 1743,6661zm20467 1733c-3,-257 0,-520 2,-787 14,-1329 27,-2793 -839,-3762 -609,-518 -4231,-740 -7932,-718 -3625,23 -7139,277 -7821,716 -444,648 -779,1359 -994,2104 -229,792 -323,1630 -272,2476l5 79c0,414 957,1131 1888,1731l383 -3474 2675 104 171 5101 8048 0 -263 -4769 2670 -274 532 3505c871,-688 1744,-1509 1744,-2032l3 0zm-8918 -16596l0 107c-2096,-7 -3821,1657 -3879,3754 9,2123 1714,3855 3843,3861 2129,7 3872,-1712 3880,-3843 6,-2128 -1713,-3873 -3844,-3879zm12153 -19918l378 -3503 2675 95 185 5093 8059 -215 -234 -4548 2670 -268 533 3510c871,-685 1743,-1500 1743,-2019l18 -727c0,-1324 1,-2843 -904,-3855 -1193,-1010 -14278,-931 -15743,-13 -917,1338 -1361,2947 -1260,4566 40,687 1361,1528 1880,1884zm6755 -18116l-5 0c-2138,263 -3648,2202 -3367,4339 136,1060 687,1963 1467,2568l6 0c779,606 1792,915 2850,784 1064,-131 1974,-680 2583,-1459 608,-780 919,-1796 787,-2863 -262,-2127 -2196,-3631 -4321,-3369z"/>
 </g>
</svg>
