<?xml version="1.0" encoding="UTF-8"?>
<!DOCTYPE svg PUBLIC "-//W3C//DTD SVG 1.1//EN" "http://www.w3.org/Graphics/SVG/1.1/DTD/svg11.dtd">
<!-- Creator: CorelDRAW X8 -->
<svg xmlns="http://www.w3.org/2000/svg" xml:space="preserve" width="197px" height="62px" version="1.1" style="shape-rendering:geometricPrecision; text-rendering:geometricPrecision; image-rendering:optimizeQuality; fill-rule:evenodd; clip-rule:evenodd"
viewBox="0 0 197000 62000"
 xmlns:xlink="http://www.w3.org/1999/xlink">
 <defs>
  <style type="text/css">
   <![CDATA[
    .fil0 {fill:white;fill-rule:nonzero}
   ]]>
  </style>
 </defs>
 <g id="Layer_x0020_1">
  <metadata id="CorelCorpID_0Corel-Layer"/>
  <g>
   <path class="fil0" d="M67596 20651l-621 3661 5006 0 -2892 17044 3461 0 2892 -17044 5006 0 621 -3661 -13473 0zm-20891 21621l-17207 2108 -1788 -2366 -2578 315 -324 -428c-100,-1246 -145,-2553 -133,-3903l2 -149c3,-245 7,-492 14,-740l0 -6 4 -135 0 -15 5 -151 0 -5 11 -297 6 -151 6 -143 1 -16 7 -145 7 -152 0 -6 8 -147 4 -71 4 -82 3 -53 6 -100 9 -154 10 -150 0 -3 8 -115 2 -39 11 -154 2 -27 9 -128 3 -36 8 -112 1 -6 12 -155 0 -5 5 -55 12 -150 1 -16 7 -84 12 -138 2 -18 13 -155 10 -106 11 -120 5 -46 3 -40 16 -157 2 -26 14 -130 9 -93 2 -23 21 -198 1 -3 16 -153 2 -19 12 -105 4 -33 16 -138 2 -20 18 -157 6 -48 4 -33 17 -140 12 -94 20 -158 3 -26 7 -54 19 -146 3 -25 9 -65 21 -159 1 -2 21 -156 10 -70 12 -88 20 -138 3 -21 23 -158 7 -48 4 -25c20,-135 40,-269 61,-404l4 -24 21 -135 15 -92 4 -22 30 -191 3 -13 0 -1 26 -158 12 -69 6 -36 23 -138 10 -54 3 -22 28 -159 8 -46 20 -113 21 -115 8 -45 29 -159 5 -23 8 -45 29 -153 5 -30 13 -68 31 -159 10 -49 9 -48 9 -49 10 -48 10 -49 9 -48 10 -48 9 -49 10 -48 10 -48 9 -48 10 -49 10 -48 10 -48 10 -48 10 -48 0 0 10 -48 0 0 10 -48 9 -48 11 -48 10 -48 10 -48 10 -48 10 -47 10 -48 11 -48 10 -47 10 -48 0 0 10 -48 0 0 11 -47 0 0 10 -48 10 -47 1 0 10 -48 0 0 10 -47 11 -48 0 0 10 -47 11 -48 0 0 11 -47 10 -47 11 -47 10 -48 1 0 10 -47 11 -47 11 -47 0 0 10 -47 1 0 10 -47 11 -47 0 0 11 -47 11 -47 11 -47 11 -47 0 0 11 -46 0 0 11 -47 0 0 11 -47 11 -47 0 0 11 -46 0 0 12 -47 11 -47 0 0 11 -46 11 -47 0 0 11 -46 12 -47 11 -46 11 -46 102 -21 101 -21 0 0 101 -20 0 0 100 -20 99 -19 0 0 100 -20 98 -19 98 -19 0 0 98 -19 0 0 97 -18 0 0 96 -18 0 -1 96 -18 0 0 96 -17 0 0 94 -18 1 0 94 -17 0 0 93 -17 0 0 93 -17 0 0 93 -16 0 0 91 -17 1 0 91 -16 0 0 90 -16 0 0 90 -15 0 0 90 -16 0 0 88 -15 0 0 88 -14 0 -1 88 -14 0 0 86 -15 86 -14 1 0 85 -14 0 0 84 -13 0 0 84 -13 0 0 84 -14 0 0 82 -13 0 0 82 -12 0 0 81 -13 0 0 80 -12 80 -12 0 0 79 -12 0 0 78 -11 0 0 77 -11 77 -12 75 -10 0 0 76 -11 74 -10 0 0 73 -10 73 -10 0 0 71 -10 0 0 71 -9 0 0 70 -9 69 -9 0 0 69 -9 67 -8 67 -8 0 0 65 -8 65 -8 64 -8 63 -7 62 -7 62 -7 60 -6 59 -7 59 -6 57 -6 57 -5c5913,-582 12213,-385 17360,620l218 -511 -8624 -11414 2507 -307 2952 3907c10773,1175 18608,5079 19350,10534 794,5829 -6798,11450 -18204,15060 6584,-2969 13264,-6416 12633,-10539 -384,-2501 -2935,-4376 -6671,-5647l372 493 -6774 15914zm2459 -18001l-6091 -8062 -5 0 -170 -10 -6 -1 -170 -9 -5 -1 -172 -9 -5 0 -172 -9 -4 0 -173 -8 -5 -1 -173 -7 -4 -1 -173 -7 -5 0 -174 -7 -4 -1 -175 -6 -4 0 -175 -6 -4 -1 -175 -5 -5 0 -175 -5 -5 -1 -175 -4 -5 0 -176 -5 -4 0 -177 -4 -4 0 -177 -3 -4 0 -178 -3 -4 0 -178 -2 -4 0 -179 -2 -4 0 -179 -2 -3 0 -180 -1 -3 0 -180 -1 -4 0 -183 0 -181 1 -4 0 -181 1 -3 0 -182 1 -3 0 -182 2 -3 0 -182 2 -3 0 -183 3 -3 0 -183 3 -3 0 -184 4 -2 0 -184 4 -3 0 -184 5 -3 0 -185 5 -2 0 -185 6 -3 0 -185 6 -2 0 -186 7 -3 0 -186 7 -2 0 -187 8 -2 0 -187 8 -2 0 -187 9 -2 0 -188 9 -1 0 -188 10 -2 0 -189 10 -1 0 -189 11 -1 0 -190 11 -1 0 -190 11 -1 0 -190 13 -1 0 -190 12 -1 0 -191 14 -1 0 -191 13 -1 0 -191 15 -1 0 -191 15 -1 0 -192 15 -1 0 -192 15 0 0 -193 17 0 0 -193 17 -1 0 -193 17 0 0 -193 18 -1 0 -193 18 0 0 -194 19 -1 0 -193 19 -1 0 -194 20 0 0 -195 21 -33 3 -33 4 -33 3 -33 4 -33 3 -33 4 0 0 -33 4 -33 3 -33 4 -33 3 -33 4 -33 4 -33 3 -33 4 -33 4 0 0 -32 4 -34 3 -65 8 -33 4 -33 4 -33 3 0 0 -33 4 -33 4 -32 4 0 0 -33 4 0 0 -33 3 0 0 -33 4 -32 4 0 0 -33 4 -33 4 0 0 -33 4 -65 8 0 0 -33 4 -33 4 -32 4 0 0 -98 12 -33 4 0 0 -33 4 0 1 -32 4 0 0 -33 4 0 0 -33 4 -32 4 -33 4 -32 4 0 0 -33 4 0 0 -32 4 -33 5 0 0 -33 4 0 0 -32 4 0 0 -32 4 -33 5 -33 4 -32 4 -33 4 -32 5 0 0 -32 4 -33 5 -32 4 -33 4 -32 5 18 -44 19 -43 4 -10 14 -34 18 -43 9 -20 10 -24 18 -43 13 -29 6 -14 18 -43 17 -39 2 -4 18 -43 19 -43 2 -6 17 -37 18 -42 7 -16 12 -27 18 -43 12 -25 7 -17 19 -43 15 -35 4 -7 19 -43 18 -42 19 -42 19 -42 5 -12 14 -30 19 -42 9 -22 10 -20 19 -42 14 -31 5 -11 19 -42 18 -40 1 -1 19 -42 19 -41 19 -42 19 -41 8 -18 11 -24 19 -41 13 -27 6 -14 19 -41 17 -37 2 -4 20 -41 19 -41 2 -5 17 -36 20 -41 6 -14 13 -26 19 -41 11 -23 8 -17 20 -41 15 -33 4 -7 19 -41 20 -40 1 -1 18 -39 20 -40 5 -11 14 -29 20 -40 9 -20 10 -20 20 -40 14 -28 5 -12 38 -77 2 -2 58 -118 20 -40c529,-1056 1079,-2033 1641,-2921l-2552 312 -5550 680c3465,-7633 8118,-12264 12786,-11959 4927,321 8761,6982 9849,15973 -1363,-5087 -3420,-10354 -6929,-10816 -2379,-313 -5121,1889 -7604,5810l-1539 188 8371 -1025 1831 2425 8624 11414zm-30645 9306l-3817 -5053c-4801,2092 -8626,4963 -8487,8692 92,2459 6676,5703 12187,7295 -8577,-958 -17237,-5218 -17844,-10353 -688,-5833 6812,-11784 18174,-15193l2734 -6421 2308 -283c-825,1818 -1583,3807 -2258,5939 -951,238 -1880,493 -2784,765l-4055 9526 25 33 4 -2 5 -2 5 -2 5 -2 4 -2 5 -2 5 -2 5 -2 4 -3 5 -1 5 -2 5 -2 4 -3 5 -2 4 -1 1 -1 5 -2 4 -2 5 -2 5 -2 5 -2 5 -2 4 -2 5 -2 5 -2 5 -2 4 -2 5 -3 5 -2 5 -2 3 -1 2 -1 4 -2 5 -2 5 -2 5 -2 5 -2 4 -2 5 -2 5 -2 5 -2 4 -2 5 -2 5 -2 5 -3 5 -2 2 0 2 -1 5 -2 5 -2 5 -3 4 -2 5 -2 5 -2 5 -2 5 -2 5 -2 9 -4 5 -2 5 -2c1424,-605 2926,-1145 4435,-1621 -146,807 -281,1626 -404,2457 -204,1375 -359,2733 -469,4069l-1 12 -2 17 -1 17 -2 17 0 2 0 2 -16 200zm11 -135l-11 135 11 -135zm10489 -21823l1319 -162 -1013 124 -306 38zm14885 31529c-3649,11672 -9682,19239 -15560,18517 -6459,-790 -11016,-12981 -9825,-28088l6289 8324c527,6548 2590,11382 6050,11833 3654,474 9894,-3344 13046,-10586zm-25371 -9741l-3 35 3 -35zm169133 -12756l-3515 20705 11698 0 637 -3749 -8237 0 2876 -16956 -3459 0zm-14202 0l-3514 20705 12576 0 620 -3663 -9181 0 910 -5363 8074 0 622 -3663 -8075 0 739 -4355 8790 0 622 -3661 -12183 0zm-8338 -548c-5377,0 -7058,4065 -7455,6402 -763,4498 1664,5422 4232,6053l1712 523c1666,518 2816,949 2536,2594 -386,2279 -2526,2654 -3888,2654 -1914,0 -3291,-866 -2961,-3346l-3323 0c-748,4414 1480,6921 5840,6921 3298,0 6905,-1817 7747,-6776 685,-4038 -1646,-4991 -3504,-5596l-3716 -1212c-658,-199 -1665,-518 -1381,-2191 314,-1846 1986,-2451 3300,-2451 3023,0 2927,2192 2863,3114l3322 0c408,-2536 -250,-6689 -5324,-6689zm-24027 548l-3514 20705 3231 0 2931 -17274 47 0 90 17274 3392 0 6028 -17303 51 -27 -2942 17330 3230 0 3512 -20705 -5005 0 -5723 16322 -46 0 -230 -16322 -5052 0zm-9908 3113c2862,0 4043,2826 3298,7211 -807,4759 -3056,7266 -5733,7266 -2838,0 -4019,-2825 -3269,-7238 816,-4815 3142,-7239 5704,-7239zm643 -3661l0 0c-3643,0 -8399,2593 -9809,10900 -1379,8132 2305,10901 6112,10901 3667,0 8393,-2566 9812,-10929 1406,-8279 -2516,-10872 -6115,-10872zm-22524 548l-3514 20705 3460 0 1191 -7008 1967 -2076 3580 9084 4452 0 -5077 -12227 8200 -8478 -4478 0 -7749 8420 1428 -8420 -3460 0zm-13168 0l-3513 20705 11695 0 638 -3749 -8237 0 2878 -16956 -3461 0zm-14201 0l-3514 20705 12574 0 621 -3663 -9181 0 910 -5363 8074 0 621 -3663 -8074 0 739 -4355 8790 0 621 -3661 -12181 0z"/>
  </g>
 </g>
</svg>
