<?xml version="1.0" encoding="UTF-8"?>
<!DOCTYPE svg PUBLIC "-//W3C//DTD SVG 1.1//EN" "http://www.w3.org/Graphics/SVG/1.1/DTD/svg11.dtd">
<!-- Creator: CorelDRAW X8 -->
<svg xmlns="http://www.w3.org/2000/svg" xml:space="preserve" width="37px" height="14px" version="1.1" style="shape-rendering:geometricPrecision; text-rendering:geometricPrecision; image-rendering:optimizeQuality; fill-rule:evenodd; clip-rule:evenodd"
viewBox="0 0 370000 139999"
 xmlns:xlink="http://www.w3.org/1999/xlink">
 <defs>
  <style type="text/css">
   <![CDATA[
    .fil0 {fill:white}
   ]]>
  </style>
 </defs>
 <g id="Layer_x0020_1">
  <metadata id="CorelCorpID_0Corel-Layer"/>
  <path class="fil0" d="M165044 134934l-2472 0 -25336 -32137 21407 -27151 26360 33435 26360 -33435 21404 27151 -25336 32137 -2472 0c-13303,0 -26609,0 -39915,0zm39915 -129868l2472 0 82055 104072 -2959 2957 -37523 0 -64001 -81177 -64005 81177 -37522 0 -2960 -2957 82056 -104072 2475 0c13303,0 26606,0 39912,0zm36567 32326l7484 -9487c49156,0 67511,0 116667,0l-22320 28358 -73900 0 -6526 8277 -21405 -27148zm-113050 0l-7480 -9487c-49159,0 -67511,0 -116670,0l22320 28358 73900 0 6526 8277 21404 -27148z"/>
 </g>
</svg>
