<?xml version="1.0" encoding="UTF-8"?>
<!DOCTYPE svg PUBLIC "-//W3C//DTD SVG 1.1//EN" "http://www.w3.org/Graphics/SVG/1.1/DTD/svg11.dtd">
<!-- Creator: CorelDRAW X8 -->
<svg xmlns="http://www.w3.org/2000/svg" xml:space="preserve" width="148px" height="27px" version="1.1" style="shape-rendering:geometricPrecision; text-rendering:geometricPrecision; image-rendering:optimizeQuality; fill-rule:evenodd; clip-rule:evenodd"
viewBox="0 0 148000 26999"
 xmlns:xlink="http://www.w3.org/1999/xlink">
 <defs>
  <style type="text/css">
   <![CDATA[
    .fil0 {fill:white}
   ]]>
  </style>
 </defs>
 <g id="Layer_x0020_1">
  <metadata id="CorelCorpID_0Corel-Layer"/>
  <path class="fil0" d="M13566 6933c2062,0 3733,1671 3733,3732 0,2060 -1672,3732 -3733,3732 -2059,0 -3730,-1672 -3730,-3732 0,-2061 1671,-3732 3730,-3732zm30565 -1052c2237,0 4219,624 5941,1866l0 -6254 4427 0 0 25046 -4427 0 0 -1863c-1722,1242 -3704,1863 -5941,1863 -2855,0 -5287,-1008 -7301,-3027 -2019,-2015 -3026,-4447 -3026,-7302 0,-2850 1007,-5288 3026,-7302 2014,-2014 4446,-3027 7301,-3027zm71816 -4424l4427 0 0 4421 4445 0 0 4427 -4445 0 0 5901c0,1632 574,3027 1726,4175 790,793 1697,1313 2719,1559l0 4501c-2236,-290 -4183,-1266 -5845,-2933 -2019,-2016 -3027,-4446 -3027,-7302l0 -14749zm-25215 4426c2849,0 5287,1013 7300,3027 2015,2013 3027,4451 3027,7301 0,494 -30,976 -91,1445l-66 514 -15759 0c282,819 752,1557 1413,2216 1150,1153 2544,1727 4176,1727 1578,0 2931,-538 4062,-1617l5368 0c-501,1092 -1211,2097 -2130,3017 -2013,2018 -4451,3026 -7300,3026 -2856,0 -5288,-1008 -7303,-3026 -2018,-2014 -3026,-4447 -3026,-7302 0,-2850 1008,-5288 3026,-7301 2015,-2014 4447,-3027 7303,-3027zm5585 8370c-282,-817 -753,-1556 -1411,-2217 -1154,-1147 -2543,-1727 -4174,-1727 -1632,0 -3026,580 -4176,1727 -660,661 -1131,1400 -1412,2217l11173 0zm-33465 -12760l0 4388 -4427 0 0 -4388 4427 0zm0 5865l0 19181 -4427 0 0 -19181 4427 0zm3959 8853c0,-2850 1007,-5288 3026,-7301 2005,-2006 4425,-3018 7263,-3027 12,0 1587,0 1600,0l0 2734c-489,538 -917,1102 -1283,1693l-374 0c-1590,22 -2953,601 -4078,1726 -1153,1154 -1728,2545 -1728,4175l0 10328 -4426 0 0 -10328zm37083 -14754l4427 0 0 4421 4444 0 0 4427 -4444 0 0 5901c0,1632 573,3027 1726,4175 790,793 1696,1313 2718,1559l0 4501c-2235,-290 -4182,-1266 -5845,-2933 -2019,-2016 -3026,-4446 -3026,-7302l0 -14749zm33430 4426c2851,0 5287,1013 7302,3027 2014,2013 3026,4451 3026,7301 0,2855 -1012,5288 -3026,7302 -2015,2018 -4451,3026 -7302,3026 -2854,0 -5288,-1008 -7301,-3026 -2019,-2014 -3026,-4447 -3026,-7302 0,-2850 1007,-5288 3026,-7301 2013,-2014 4447,-3027 7301,-3027zm0 4426c-1631,0 -3026,580 -4174,1727 -1154,1154 -1728,2544 -1728,4175 0,1631 574,3027 1728,4175 1148,1153 2543,1727 4174,1727 1632,0 3022,-574 4175,-1727 1148,-1148 1727,-2544 1727,-4175 0,-1631 -579,-3021 -1727,-4175 -1153,-1147 -2543,-1727 -4175,-1727zm-93193 -1c-1631,0 -3026,580 -4174,1728 -1153,1153 -1727,2543 -1727,4174 0,1632 574,3027 1727,4175 1148,1154 2543,1726 4174,1726 1632,0 3021,-572 4174,-1726 1149,-1148 1728,-2543 1728,-4175 0,-1631 -579,-3021 -1728,-4174 -1153,-1148 -2542,-1728 -4174,-1728zm-26679 7911c-2338,-1661 -5490,-1661 -7828,0 1959,3532 -320,7490 -4067,8327 -862,-3085 -405,-6133 1858,-8543 -704,-645 -1643,-1038 -2673,-1038 -2185,0 -3957,1771 -3957,3956l0 26c-1523,-2411 1208,-5604 3957,-5604 1517,0 2892,605 3896,1586 2937,-2116 6862,-2116 9799,0 1006,-981 2380,-1586 3897,-1586 2748,0 5479,3193 3956,5604l1 -26c0,-2185 -1772,-3956 -3957,-3956 -1031,0 -1969,393 -2673,1038 2270,2417 2723,5448 1858,8543 -3757,-839 -6044,-4763 -4067,-8327zm2872 6112c41,-1904 -363,-3491 -1627,-4973 -792,1839 -73,3968 1627,4973zm-13571 0c288,-171 552,-376 787,-611 1143,-1144 1475,-2881 838,-4362 -1295,1518 -1668,3027 -1625,4973zm6813 -23877c1297,0 2348,1051 2348,2347 0,1296 -1051,2346 -2348,2346 -1295,0 -2346,-1050 -2346,-2346 0,-1296 1051,-2347 2346,-2347zm0 918c-789,0 -1427,639 -1427,1429 0,789 638,1428 1427,1428 791,0 1430,-639 1430,-1428 0,-790 -639,-1429 -1430,-1429zm5210 1566c1345,0 2437,1092 2437,2437 0,1346 -1092,2438 -2437,2438 -1345,0 -2437,-1092 -2437,-2438 0,-1345 1092,-2437 2437,-2437zm0 953c-818,0 -1483,665 -1483,1484 0,820 664,1484 1483,1484 820,0 1484,-664 1484,-1484 0,-819 -664,-1484 -1484,-1484zm-10507 -953c1346,0 2437,1092 2437,2437 0,1346 -1091,2438 -2437,2438 -1345,0 -2437,-1092 -2437,-2438 0,-1345 1092,-2437 2437,-2437zm0 953c-819,0 -1484,665 -1484,1484 0,820 665,1484 1484,1484 820,0 1484,-664 1484,-1484 0,-819 -664,-1484 -1484,-1484zm12963 4761c1693,0 3066,1373 3066,3067 0,1692 -1373,3065 -3066,3065 -1693,0 -3066,-1373 -3066,-3065 0,-1694 1373,-3067 3066,-3067zm0 1200c-1030,0 -1867,835 -1867,1867 0,1030 837,1865 1867,1865 1031,0 1866,-835 1866,-1865 0,-1032 -835,-1867 -1866,-1867zm-15330 -1200c1693,0 3067,1373 3067,3067 0,1692 -1374,3065 -3067,3065 -1693,0 -3065,-1373 -3065,-3065 0,-1694 1372,-3067 3065,-3067zm0 1200c-1031,0 -1866,835 -1866,1867 0,1030 835,1865 1866,1865 1031,0 1867,-835 1867,-1865 0,-1032 -836,-1867 -1867,-1867zm7664 -1459c-1253,0 -2270,1017 -2270,2272 0,1255 1017,2272 2270,2272 1256,0 2273,-1017 2273,-2272 0,-1255 -1017,-2272 -2273,-2272z"/>
 </g>
</svg>
