<?xml version="1.0" encoding="UTF-8"?>
<!DOCTYPE svg PUBLIC "-//W3C//DTD SVG 1.1//EN" "http://www.w3.org/Graphics/SVG/1.1/DTD/svg11.dtd">
<!-- Creator: CorelDRAW X8 -->
<svg xmlns="http://www.w3.org/2000/svg" xml:space="preserve" width="25px" height="25px" version="1.1" style="shape-rendering:geometricPrecision; text-rendering:geometricPrecision; image-rendering:optimizeQuality; fill-rule:evenodd; clip-rule:evenodd"
viewBox="0 0 25000 25000"
 xmlns:xlink="http://www.w3.org/1999/xlink">
 <defs>
  <style type="text/css">
   <![CDATA[
    .fil0 {fill:white;fill-rule:nonzero}
   ]]>
  </style>
 </defs>
 <g id="Layer_x0020_1">
  <metadata id="CorelCorpID_0Corel-Layer"/>
  <path class="fil0" d="M12500 500c3313,0 6314,1343 8485,3515 2172,2171 3515,5172 3515,8485 0,3313 -1343,6314 -3515,8485 -2171,2172 -5172,3515 -8485,3515 -3313,0 -6314,-1343 -8485,-3515 -2172,-2171 -3515,-5172 -3515,-8485 0,-3313 1343,-6314 3515,-8485 2171,-2172 5172,-3515 8485,-3515zm7428 4572c-1900,-1901 -4527,-3077 -7428,-3077 -2901,0 -5528,1176 -7428,3077 -1901,1900 -3077,4527 -3077,7428 0,2901 1176,5528 3077,7428 1900,1901 4527,3077 7428,3077 2901,0 5528,-1176 7428,-3077 1901,-1900 3077,-4527 3077,-7428 0,-2901 -1176,-5528 -3077,-7428z"/>
  <path class="fil0" d="M13401 18227l-2146 0 0 -5727 -1431 0 0 -1974 1431 0 -2 -1163c0,-1610 437,-2590 2333,-2590l1579 0 0 1974 -987 0c-738,0 -774,276 -774,791l-3 988 1775 0 -209 1973 -1564 1 -2 5727z"/>
 </g>
</svg>
