<?xml version="1.0" encoding="UTF-8"?>
<!DOCTYPE svg PUBLIC "-//W3C//DTD SVG 1.1//EN" "http://www.w3.org/Graphics/SVG/1.1/DTD/svg11.dtd">
<!-- Creator: CorelDRAW X8 -->
<svg xmlns="http://www.w3.org/2000/svg" xml:space="preserve" width="127px" height="42px" version="1.1" style="shape-rendering:geometricPrecision; text-rendering:geometricPrecision; image-rendering:optimizeQuality; fill-rule:evenodd; clip-rule:evenodd"
viewBox="0 0 127000 42000"
 xmlns:xlink="http://www.w3.org/1999/xlink">
 <defs>
  <style type="text/css">
   <![CDATA[
    .fil0 {fill:white}
   ]]>
  </style>
 </defs>
 <g id="Layer_x0020_1">
  <metadata id="CorelCorpID_0Corel-Layer"/>
  <g>
   <path class="fil0" d="M52940 26105c-567,1370 -1459,2623 -2554,3623 -5352,4887 -14763,2650 -16851,-4822 -1203,-4302 546,-9099 4310,-11504 8239,-5267 19101,3013 15095,12703zm22485 0c-566,1370 -1459,2623 -2554,3623 -5352,4887 -14763,2650 -16851,-4822 -1203,-4302 546,-9099 4310,-11504 8239,-5267 19101,3013 15095,12703zm-13806 -8210c-2046,2448 -1919,6435 338,8714 1287,1308 3228,1920 5022,1562 4864,-862 6311,-7578 2785,-10825 -2380,-2197 -6119,-1927 -8145,549zm49045 -3587c2532,-2363 6436,-3165 9685,-1920 3081,1160 5043,4093 6035,7110 -4579,1899 -9137,3777 -13715,5677 633,1202 1603,2299 2911,2742 1836,655 4031,422 5571,-801 612,-465 1097,-1077 1561,-1667 1161,780 2321,1540 3482,2321 -1646,2468 -4410,4199 -7385,4473 -3292,401 -6795,-865 -8926,-3439 -3502,-4051 -3165,-10846 781,-14496l0 0zm-27873 -1076c2426,-1519 5655,-1942 8271,-633 823,359 1498,971 2152,1582 21,-569 0,-1160 21,-1751 1414,21 2828,0 4262,21 0,6204 0,12407 0,18610 -51,6814 -4398,11386 -11436,10318 -3270,-485 -6119,-2869 -7385,-5887 1266,-612 2595,-1097 3904,-1666 738,1730 2236,3207 4114,3544 5269,947 6661,-3092 6520,-7448 -970,950 -2089,1794 -3439,2110 -2933,823 -6161,-190 -8419,-2173 -2279,-1984 -3629,-5043 -3503,-8082 63,-3439 2005,-6752 4938,-8545l0 0zm-55114 -8356c-1013,1034 -2047,2026 -3038,3060 -3932,-3554 -9698,-4239 -14159,-1203 -5704,3729 -6797,11970 -2447,17154 3952,4785 11893,5591 16416,1245 1688,-1456 2468,-3671 2721,-5823 -3502,0 -7005,21 -10507,0 0,-1449 0,-2898 0,-4347 4916,0 9832,0 14749,0 759,4663 -338,9917 -3883,13251 -4718,4718 -12664,5294 -18399,2173 -3439,-1836 -6183,-4937 -7533,-8587 -2513,-6661 -48,-14128 5697,-18231 6097,-4484 14961,-4156 20383,1308zm85245 13335c-718,1034 -1013,2300 -992,3545 3060,-1266 6119,-2532 9179,-3819 -507,-1182 -1731,-1899 -2976,-2089 -2004,-359 -4093,717 -5211,2363zm-29076 -358c-1984,2363 -1984,6140 21,8461 2392,2880 6918,2551 8778,-739 1392,-2468 1160,-5823 -718,-7975 -2185,-2503 -6039,-2208 -8081,253zm-44712 42c-2046,2448 -1920,6435 338,8714 1287,1308 3228,1920 5022,1562 4864,-862 6311,-7578 2785,-10825 -2380,-2197 -6119,-1927 -8145,549zm61592 -16332c1505,0 3010,0 4515,0 0,10044 0,20088 0,30131 -1498,0 -3017,22 -4515,-21 21,-10022 0,-20066 0,-30110 0,0 0,0 0,0z"/>
  </g>
 </g>
</svg>
