<?xml version="1.0" encoding="UTF-8"?>
<!DOCTYPE svg PUBLIC "-//W3C//DTD SVG 1.1//EN" "http://www.w3.org/Graphics/SVG/1.1/DTD/svg11.dtd">
<!-- Creator: CorelDRAW X8 -->
<svg xmlns="http://www.w3.org/2000/svg" xml:space="preserve" width="150px" height="31px" version="1.1" style="shape-rendering:geometricPrecision; text-rendering:geometricPrecision; image-rendering:optimizeQuality; fill-rule:evenodd; clip-rule:evenodd"
viewBox="0 0 150000 31000"
 xmlns:xlink="http://www.w3.org/1999/xlink">
 <defs>
  <style type="text/css">
   <![CDATA[
    .fil0 {fill:white}
   ]]>
  </style>
 </defs>
 <g id="Layer_x0020_1">
  <metadata id="CorelCorpID_0Corel-Layer"/>
  <path class="fil0" d="M15343 15737l0 7424 -7477 7477 -7478 -7477 0 -7424 7478 7477 7477 -7477zm12400 -12622c0,-3662 6269,-3662 6244,-13l14 5587 3634 0 5598 49c377,93 825,0 1203,54 2210,296 4097,1990 4717,4123 117,441 218,879 248,1345l0 12658c-93,968 -714,1846 -1565,2314 -1113,621 -2472,441 -3492,-259 -697,-593 -1164,-1345 -1242,-2237l0 -10534c27,-327 0,-672 -231,-906 -324,-323 -791,-363 -1217,-403l-7577 0 -37 39c-15,917 37,1824 -53,2677l0 9216c-103,1116 -994,2214 -2067,2536 -1100,401 -2330,157 -3208,-543 -633,-451 -867,-1112 -968,-1835l0 -23868 -1 0zm25303 5896c1226,-529 2611,-310 3569,634 619,622 838,1448 878,2236l-14 6659 0 4100c26,449 284,865 712,1046l452 53 6878 -27c414,-115 789,-492 854,-944l39 -1199 0 -9726c38,-1152 814,-2276 1837,-2778 268,-54 477,-233 774,-221l51 -51c1243,-130 2367,272 3116,1290 348,502 537,1097 545,1706l24 13048c-13,2791 -2936,4434 -5403,4395l-11015 13c-2432,-13 -5133,-1616 -5133,-4408l0 -13251c139,-1038 841,-2110 1836,-2576l0 1zm21344 4899c222,-2054 1681,-4085 3685,-4795 519,-170 984,-312 1552,-350l11921 66c2223,180 4305,2028 4899,4124 142,517 245,1139 231,1627l0 11974c-102,1100 -916,2302 -1977,2587 -1113,412 -2327,232 -3221,-558 -673,-633 -1035,-1433 -1072,-2378l-24 -10849c-27,-323 -193,-658 -505,-826 -104,-51 -219,-78 -336,-78 -116,0 -231,27 -335,78 -790,582 -402,1579 -504,2418l0 9696c-143,983 -792,2005 -1760,2419 -1279,530 -2675,310 -3671,-646 -624,-611 -854,-1386 -908,-2226l0 -10784c-89,-64 0,-206 -63,-296 -141,-324 -375,-581 -736,-632 -286,-14 -530,180 -699,400 -181,181 -155,439 -181,699l26 9463c116,1149 -76,2676 -1086,3541 -607,467 -1305,791 -2149,738 -178,65 -396,0 -592,-38 -1242,-234 -2199,-1344 -2445,-2549 -101,-181 0,-451 -89,-645l39 -12180 0 0zm47697 -62c270,-2096 1693,-4138 3816,-4837 437,-207 980,-207 1457,-272l8756 0c180,54 372,54 555,93 1952,285 3865,1950 4472,3814 452,1149 284,2481 284,3773 -100,1928 -1513,3738 -3242,4473 -688,260 -1437,493 -2160,453l-7165 0c-258,91 -516,79 -724,260 -179,158 -246,375 -283,583 38,360 334,633 646,761l1371 27 8470 62c1188,69 2389,765 2869,1941 452,984 272,2197 -439,3013 -634,685 -1474,1100 -2392,1100l-10809 -25c-2033,25 -3968,-1346 -4898,-3157 -440,-825 -623,-1783 -649,-2766l65 -9296 0 0zm6579 386l5872 0c419,13 753,357 753,777 0,419 -334,763 -753,776l-5872 0c-428,-1 -775,-348 -776,-776 0,-429 350,-777 776,-777zm20945 -11146l0 23765c0,3399 -6451,3310 -6451,0l-27 -23765c14,-1811 1623,-2719 3233,-2726l33 0c1610,7 3212,915 3212,2726zm-51250 10901c222,-2055 1683,-4086 3684,-4797 519,-169 982,-310 1555,-348l11918 64c2224,181 4306,2029 4900,4126 144,517 245,1136 233,1629l0 11973c-104,1098 -918,2300 -1979,2585 -1112,414 -2326,233 -3220,-557 -672,-633 -1033,-1435 -1074,-2378l-24 -10847c-26,-324 -192,-661 -506,-827 -103,-53 -219,-80 -336,-80 -116,0 -231,27 -336,80 -789,580 -402,1576 -502,2417l0 9697c-142,982 -792,2003 -1760,2418 -1281,530 -2675,309 -3672,-650 -622,-606 -853,-1383 -906,-2222l0 -10783c-89,-67 0,-208 -63,-297 -144,-322 -375,-580 -740,-633 -281,-13 -528,179 -697,400 -179,183 -156,441 -179,698l23 9465c118,1150 -76,2676 -1083,3541 -611,467 -1308,791 -2149,737 -180,65 -402,0 -592,-39 -1242,-232 -2200,-1344 -2446,-2546 -103,-180 0,-453 -92,-648l43 -12178 0 0zm-83018 -13450l0 7424 -7477 7477 -7478 -7477 0 -7424 7478 7478 7477 -7478z"/>
 </g>
</svg>
