<?xml version="1.0" encoding="UTF-8"?>
<!DOCTYPE svg PUBLIC "-//W3C//DTD SVG 1.1//EN" "http://www.w3.org/Graphics/SVG/1.1/DTD/svg11.dtd">
<!-- Creator: CorelDRAW X8 -->
<svg xmlns="http://www.w3.org/2000/svg" xml:space="preserve" width="25px" height="25px" version="1.1" style="shape-rendering:geometricPrecision; text-rendering:geometricPrecision; image-rendering:optimizeQuality; fill-rule:evenodd; clip-rule:evenodd"
viewBox="0 0 25000 25000"
 xmlns:xlink="http://www.w3.org/1999/xlink">
 <defs>
  <style type="text/css">
   <![CDATA[
    .fil0 {fill:white;fill-rule:nonzero}
   ]]>
  </style>
 </defs>
 <g id="Layer_x0020_1">
  <metadata id="CorelCorpID_0Corel-Layer"/>
  <g id="_2298766427056">
   <path class="fil0" d="M12500 500c3313,0 6314,1343 8485,3515 2172,2171 3515,5172 3515,8485 0,3313 -1343,6314 -3515,8485 -2171,2172 -5172,3515 -8485,3515 -3313,0 -6314,-1343 -8485,-3515 -2172,-2171 -3515,-5172 -3515,-8485 0,-3313 1343,-6314 3515,-8485 2171,-2172 5172,-3515 8485,-3515zm7428 4572c-1900,-1901 -4527,-3077 -7428,-3077 -2901,0 -5528,1176 -7428,3077 -1901,1900 -3077,4527 -3077,7428 0,2901 1176,5528 3077,7428 1900,1901 4527,3077 7428,3077 2901,0 5528,-1176 7428,-3077 1901,-1900 3077,-4527 3077,-7428 0,-2901 -1176,-5528 -3077,-7428z"/>
   <path class="fil0" d="M15541 10163c-385,0 -698,-312 -698,-697 0,-384 313,-697 698,-697 384,0 697,313 697,697 0,385 -313,697 -697,697zm2678 5171c0,1591 -1294,2885 -2885,2885l-5668 0c-1591,0 -2885,-1294 -2885,-2885l0 -5668c0,-1591 1294,-2885 2885,-2885l5668 0c1591,0 2885,1294 2885,2885l0 5668zm-2885 -7308l-5668 0c-904,0 -1641,736 -1641,1640l0 5668c0,905 737,1641 1641,1641l5668 0c904,0 1641,-736 1641,-1641l0 -5668c0,-904 -737,-1640 -1641,-1640zm-2834 7420c-1625,0 -2946,-1321 -2946,-2946 0,-1624 1321,-2946 2946,-2946 1624,0 2946,1322 2946,2946 0,1625 -1322,2946 -2946,2946zm0 -4647c-938,0 -1701,763 -1701,1701 0,938 763,1701 1701,1701 938,0 1701,-763 1701,-1701 0,-938 -763,-1701 -1701,-1701z"/>
  </g>
 </g>
</svg>
