<?xml version="1.0" encoding="UTF-8"?>
<!DOCTYPE svg PUBLIC "-//W3C//DTD SVG 1.1//EN" "http://www.w3.org/Graphics/SVG/1.1/DTD/svg11.dtd">
<!-- Creator: CorelDRAW X8 -->
<svg xmlns="http://www.w3.org/2000/svg" xml:space="preserve" width="130px" height="42px" version="1.1" style="shape-rendering:geometricPrecision; text-rendering:geometricPrecision; image-rendering:optimizeQuality; fill-rule:evenodd; clip-rule:evenodd"
viewBox="0 0 130000 42000"
 xmlns:xlink="http://www.w3.org/1999/xlink">
 <defs>
  <style type="text/css">
   <![CDATA[
    .fil0 {fill:white}
   ]]>
  </style>
 </defs>
 <g id="Layer_x0020_1">
  <metadata id="CorelCorpID_0Corel-Layer"/>
  <path class="fil0" d="M28309 2757c-52,496 -65,1041 -96,1547 -358,5959 -625,11497 -309,17505 109,2069 313,4142 412,6204 73,-7 1695,-782 1772,-849 45,-90 274,-5646 299,-6249 259,-6099 -174,-11297 -462,-17302 -25,-518 -82,-1039 -103,-1545 -505,229 -1009,459 -1513,689zm26523 30641c-181,148 -836,51 -1113,51 1,370 3,741 5,1111 1683,0 3367,0 5050,0 -1,-369 -2,-737 -3,-1106 -407,3 -1091,96 -1348,-119 -167,-295 -155,-5710 0,-6135 469,-168 848,-26 1345,-112 4,-283 65,-850 -33,-1072 -1670,2 -3340,4 -5010,7 0,358 -1,715 -2,1073 703,115 1401,-269 1442,537 49,975 79,5365 -99,5752 -79,5 -156,9 -234,13zm20384 -196c26,518 -857,308 -1374,357 3,342 6,683 9,1024 1677,1 3353,2 5030,2 -1,-347 -2,-694 -3,-1041 -470,6 -957,46 -1330,-90 -163,-459 -140,-5494 -82,-6330 3300,-116 2907,-74 2958,2150 338,10 677,20 1015,30 2,-1092 4,-2183 5,-3275 -3388,0 -6776,0 -10164,0 1,1082 3,2164 4,3246 347,4 694,7 1040,10 2,-637 -151,-1924 466,-2104 333,-98 2062,-83 2480,-52 4,67 65,5667 -19,5985 -12,30 -23,59 -35,88zm-15428 -4221c-546,1956 210,4118 2001,5137 1219,694 2915,986 4291,844 1367,-141 2609,-772 3338,-1848 178,-262 451,-792 457,-1182 -329,-1 -658,-2 -987,-4 -234,1523 -2534,2406 -4379,1809 -1539,-500 -2687,-1968 -2401,-4067 442,-3241 4045,-3722 5973,-2198 236,187 542,578 666,976 127,407 -163,620 1019,496 -5,-971 -11,-1941 -17,-2912 -313,-1 -627,-3 -940,-5 -17,175 -34,350 -51,525 -275,39 -288,-33 -460,-172 -374,-303 -944,-504 -1559,-631 -2691,-554 -6126,277 -6951,3232zm29681 -2943c-4,356 -7,712 -10,1069 1328,122 1440,-375 1435,1172 -3,897 -4,1794 -7,2691 -4,1736 154,2853 -2317,2983 -836,45 -1643,-170 -1983,-650 -448,-634 -348,-1459 -348,-2333 0,-4720 -275,-3716 1441,-3864 -3,-357 -7,-713 -10,-1069 -1676,-9 -3351,-18 -5027,-28 -2,371 -3,742 -5,1112 448,-1 974,-44 1336,80 394,1103 -240,4599 359,6018 630,1497 2569,1812 4582,1707 4029,-210 3439,-2784 3403,-6062 -21,-1949 1,-1747 1419,-1745 -6,-370 -11,-739 -17,-1110 -1417,10 -2834,20 -4251,29zm-43810 1107c978,2 1982,-22 2956,1 2112,51 2209,2484 -57,2599 -928,48 -1956,6 -2895,8 -1,-869 -3,-1738 -4,-2608zm93 6220c-178,-440 -81,-1877 -93,-2478 1461,16 4013,139 5309,-256 747,-227 1270,-622 1500,-1308 230,-687 180,-1778 -162,-2338 -714,-1168 -3070,-951 -4627,-951 -1861,0 -3724,10 -5583,-1 3,377 7,754 9,1131 979,-6 1362,-143 1388,526 24,603 -2,1267 -2,1876 0,4331 403,3897 -1432,3889 -4,369 -7,740 -10,1110 1685,0 3371,0 5057,0 1,-353 70,-778 -25,-1112 -430,6 -979,51 -1329,-88zm81188 -1515c719,557 295,1538 -1198,1954 -1713,478 -4768,-634 -4749,-2388 -349,-1 -699,-1 -1048,-1 10,1060 19,2120 29,3180 378,0 756,1 1134,1 12,-160 23,-319 35,-479 347,-55 1145,358 1585,484 5737,1629 7957,-2690 5180,-4596 -1479,-1015 -5873,-442 -6188,-1768 -427,-1798 5567,-2115 5975,862 307,-8 616,-16 923,-23 -3,-981 -6,-1963 -9,-2944 -325,7 -650,15 -974,22 -12,168 -23,336 -35,504 -232,32 -1256,-465 -1659,-592 -1835,-579 -4116,-356 -5504,795 -907,752 -1013,2310 -103,3231 1688,1712 5568,956 6606,1758zm-18095 1386c-85,417 -634,190 -1365,266 1,359 2,719 3,1078 1310,137 9490,-114 10156,41 -4,-1092 -9,-2186 -14,-3278 -314,4 -628,8 -942,13 -231,1615 250,2150 -1731,2143 -1200,-5 -2678,65 -3849,-30 -2,-895 -4,-1788 -6,-2683 608,-37 1368,-20 1987,-10 714,12 621,485 580,1446 316,0 632,0 948,1 -1,-1339 -1,-2678 -1,-4016 -314,2 -628,5 -942,7 10,718 214,1418 -586,1431 -621,10 -1375,29 -1981,-8 -3,-850 -5,-1699 -8,-2548 1216,-72 2620,-4 3858,-6 1536,-1 1687,128 1715,2190 328,1 656,4 984,5 1,-1081 1,-2162 2,-3243 -3391,-1 -6782,-1 -10173,-2 -2,373 -4,745 -6,1118 929,-2 1412,-162 1442,485 51,1061 9,3879 3,5210 -1,219 30,258 -74,390zm-10349 -6086c812,-64 1986,-26 2824,-10 1972,40 2187,2542 -55,2611 -643,20 -2223,69 -2790,-21 7,-860 14,-1720 21,-2580zm-3557 -19c251,-63 914,-99 1137,18 274,143 228,571 227,896 -4,760 0,1522 0,2282 0,3569 330,3139 -1437,3125 3,381 6,762 8,1143 1681,-1 3363,-2 5044,-3 -12,-376 -24,-752 -36,-1129 -581,-32 -1271,177 -1393,-298 -55,-214 -10,-2177 8,-2269 610,-44 2729,-60 3229,76 1183,321 523,1451 813,2526 252,929 999,1294 2117,1300 1336,7 1568,-382 1706,-1605 -4,-327 -8,-654 -11,-981 -293,0 -585,0 -877,0 -51,442 168,1359 -299,1466 -1002,229 -196,-1967 -836,-2682 -427,-478 -659,-296 -1124,-552 276,-168 911,-143 1445,-638 392,-362 632,-746 610,-1527 -38,-1377 -752,-1946 -2031,-2155 -1146,-188 -6703,-80 -8328,-91 9,366 19,732 28,1098zm-91652 -12817c1,8572 1,17146 2,25719 204,-97 407,-193 611,-290 -1,-8569 -2,-17138 -3,-25707 -203,92 -407,185 -610,278zm-2863 1322c1,8588 2,17176 3,25764 204,-94 408,-189 612,-283 0,-8586 0,-17173 0,-25759 -205,93 -410,186 -615,278zm5915 -2735c-25,3601 0,7278 -4,10906 0,902 -725,1286 -676,2353 11,224 64,423 188,550 582,597 492,504 494,1753 -4,3369 -9,6737 -13,10106 220,-102 441,-204 660,-305 24,-552 6,-1468 6,-2057 -1,-2524 -2,-5048 -2,-7572 0,-370 -50,-1388 45,-1663 139,-403 414,-695 564,-1153 176,-539 143,-992 -151,-1375 -500,-654 -468,-654 -469,-1642 0,-3396 -1,-6792 -1,-10188 -213,95 -427,191 -641,287zm117486 6293c-2931,3 -2449,603 -2449,-2263 0,-1183 -168,-1059 534,-1817 1450,-1566 2864,-3365 4248,-4997 1300,-1461 971,-1123 3418,-1199 0,-603 0,-1205 0,-1807 -2535,2 -5070,4 -7605,6 -112,81 -90,-101 -93,162 0,538 0,1078 0,1617 425,81 1997,-242 1450,791 -986,1159 -1971,2318 -2957,3478 -115,151 -89,181 -272,290 -1060,-1232 -2121,-2464 -3181,-3697 -857,-1078 900,-833 1059,-854 0,-542 0,-1084 0,-1625 -4,-288 18,-69 -100,-165 -3104,-2 -6209,-4 -9313,-6 -2,606 -5,1211 -8,1817 617,-8 1711,-66 2240,111 540,181 926,615 1275,1065 1300,1679 3226,3577 4723,5223 455,511 386,42 386,1372 0,493 82,2010 -44,2351 -97,118 8,78 -222,131 -809,7 -1617,15 -2426,23 2,589 3,1179 5,1768 3104,3 6208,6 9312,9 7,-595 13,-1189 20,-1784zm-51752 -10712c3643,-447 6348,1510 6745,4682 458,3659 -1715,6025 -4908,6489 -3610,523 -6277,-1532 -6691,-4658 -482,-3640 1639,-6119 4854,-6513zm-9524 5991c276,3663 2858,5669 6049,6633 6667,2015 16937,-1070 14264,-9289 -552,-1696 -1632,-2798 -2799,-3580 -3729,-2501 -9622,-2438 -13482,-367 -2679,1437 -4107,3490 -4032,6603zm-17835 99c1648,610 3166,681 4895,1016 1068,90 5014,389 5679,810 770,489 896,1442 255,2196 -1160,1364 -7630,1453 -10229,-705 -574,-476 -1086,-1001 -1106,-2129 -664,4 -1327,9 -1991,14 158,600 -66,4160 50,5233 721,-4 1442,-8 2163,-11 23,-252 45,-504 68,-756 517,-164 1796,443 2408,620 2538,732 5642,982 8185,382 5481,-1292 6344,-6820 958,-8412 -2178,-643 -5086,-726 -7404,-1018 -1015,-128 -2751,-274 -2961,-1207 -523,-2313 6143,-2882 9456,-1020 704,396 1767,1268 1831,2337 592,0 1185,0 1777,1 -10,-1599 -20,-3197 -30,-4795 -614,-1 -1227,-1 -1841,-2 -24,379 47,496 -125,798 -458,124 -584,-104 -887,-292 -255,-157 -581,-283 -897,-390 -3138,-1060 -7983,-1146 -10909,397 -3319,1750 -2927,5606 655,6933zm40560 -5618c387,-48 1595,-54 1981,-3 766,103 724,527 720,1252 0,2613 0,5226 0,7840 5,1709 -801,1097 -2672,1232 0,568 -1,1135 -2,1703 2723,-5 5446,-10 8169,-15 -3,-476 -68,-1328 37,-1751 -2952,-222 -2779,844 -2779,-2516 0,-1739 -38,-3522 3,-5256 222,103 353,307 575,471 2456,2158 9434,9067 11302,9067 532,0 1063,0 1595,1 -1,-3690 -2,-7381 -2,-11071 4,-586 139,-1009 747,-1029 594,-19 1219,5 1811,0 11,-598 22,-1196 34,-1794 -2648,0 -5295,0 -7942,-1 2,592 4,1182 6,1774 518,0 1906,-74 2275,130 539,296 356,1376 356,1976 0,1575 -13,3156 4,4730 -253,-110 -388,-360 -606,-549 -392,-350 -784,-700 -1176,-1050 -216,-190 -329,-355 -564,-547 -767,-714 -1534,-1428 -2301,-2143 -260,-217 -351,-279 -608,-562 -987,-913 -3321,-2800 -4016,-3758 -2320,0 -4639,-1 -6957,-1 3,624 6,1247 10,1870zm-75781 2493c-19,2016 3,4150 4,6160 0,3850 -1438,5684 -584,10202 88,468 188,925 283,1385 292,1415 226,1367 226,2749 -1,1713 -2,3427 -2,5140 75,-12 661,-299 716,-343 -27,-1179 1,-3046 1,-4233 0,-687 1,-1373 1,-2059 0,-503 99,-1057 175,-1547 890,-5755 -153,-7522 -147,-12544 1,-1739 3,-3478 5,-5217 -226,103 -452,205 -678,307zm3172 -1468c8,2135 76,4583 -232,6651 -304,2036 -735,3958 -802,6077 -70,2221 222,4199 546,6320 340,2218 332,2735 331,4852 -1,532 -39,1214 3,1727 232,-109 463,-218 695,-327 -67,-2225 50,-4330 289,-6499 222,-2029 543,-4162 567,-6223 25,-2172 -308,-4145 -534,-6250 -214,-2001 -244,-4596 -151,-6644 -238,105 -475,210 -712,316zm3224 -1487c-4,1415 -521,4590 -709,6235 -552,4825 -618,8230 -161,13078 194,2055 597,4230 712,6254 285,-134 570,-268 855,-402 91,-2043 435,-4197 605,-6262 387,-4693 416,-8384 -16,-13072 -189,-2056 -519,-4086 -592,-6143 -231,104 -463,208 -694,312zm2985 -1378c-22,503 -90,1039 -135,1545 -645,7374 -812,13420 -175,20801 87,1017 235,2080 294,3087 67,-4 1275,-580 1385,-653 71,-387 318,-5827 335,-6279 182,-4996 246,-7850 -98,-12885 -7,-103 -469,-5891 -515,-6117 -363,167 -727,334 -1091,501zm12622 -5167c-170,6331 -828,12081 -497,18502 92,1906 60,4298 294,6145 571,-272 1143,-545 1715,-817 99,-1874 199,-3748 299,-5622 233,-6110 195,-10979 -176,-17131 -47,-772 -125,-1660 -126,-2424 -94,16 -1396,623 -1503,692 -2,219 -4,437 -6,655zm-6278 27563c563,-268 1126,-536 1688,-805 142,-2066 198,-4191 268,-6270 160,-4741 180,-7997 -108,-12748 -63,-1027 -143,-2046 -218,-3071 -74,-1010 -198,-2061 -238,-3060 -137,26 -466,204 -616,270 -211,94 -408,196 -620,286 -190,82 -166,40 -179,261 -102,1540 -204,3080 -306,4619 -299,5279 -469,8460 -141,13811 139,2081 154,4688 470,6707zm-3237 1551c532,-253 1063,-505 1595,-757 312,-8866 72,-16506 -183,-25259 -459,204 -918,408 -1376,612 -88,52 -59,11 -68,148 -419,6306 -809,12222 -472,18566 119,2241 338,4467 504,6690z"/>
 </g>
</svg>
