<?xml version="1.0" encoding="UTF-8"?>
<!DOCTYPE svg PUBLIC "-//W3C//DTD SVG 1.1//EN" "http://www.w3.org/Graphics/SVG/1.1/DTD/svg11.dtd">
<!-- Creator: CorelDRAW X8 -->
<svg xmlns="http://www.w3.org/2000/svg" xml:space="preserve" width="18px" height="18px" version="1.1" style="shape-rendering:geometricPrecision; text-rendering:geometricPrecision; image-rendering:optimizeQuality; fill-rule:evenodd; clip-rule:evenodd"
viewBox="0 0 18000 18000"
 xmlns:xlink="http://www.w3.org/1999/xlink">
 <defs>
  <style type="text/css">
   <![CDATA[
    .fil0 {fill:white;fill-rule:nonzero}
   ]]>
  </style>
 </defs>
 <g id="Layer_x0020_1">
  <metadata id="CorelCorpID_0Corel-Layer"/>
  <path class="fil0" d="M14387 5658c-396,176 -822,295 -1270,349 457,-274 807,-707 972,-1223 -427,253 -900,437 -1403,536 -403,-430 -978,-698 -1614,-698 -1220,0 -2210,990 -2210,2210 0,174 20,342 57,504 -1837,-92 -3466,-972 -4556,-2309 -190,326 -299,706 -299,1111 0,767 390,1443 983,1840 -362,-12 -703,-111 -1001,-277 0,9 0,19 0,28 0,1071 762,1964 1773,2167 -186,51 -381,78 -582,78 -143,0 -281,-14 -416,-40 281,879 1097,1517 2065,1535 -757,593 -1710,947 -2746,947 -178,0 -354,-11 -527,-32 978,628 2140,994 3389,994 4065,0 6288,-3369 6288,-6289 0,-96 -2,-191 -6,-286 432,-312 807,-701 1103,-1145zm-5387 -5658c2485,0 4736,1007 6364,2636 1629,1628 2636,3879 2636,6364 0,2485 -1007,4736 -2636,6364 -1628,1629 -3879,2636 -6364,2636 -2485,0 -4736,-1007 -6364,-2636 -1629,-1628 -2636,-3879 -2636,-6364 0,-2485 1007,-4736 2636,-6364 1628,-1629 3879,-2636 6364,-2636zm5571 3429c-1425,-1426 -3395,-2308 -5571,-2308 -2176,0 -4146,882 -5571,2308 -1426,1425 -2308,3395 -2308,5571 0,2176 882,4146 2308,5571 1425,1426 3395,2308 5571,2308 2176,0 4146,-882 5571,-2308 1426,-1425 2308,-3395 2308,-5571 0,-2176 -882,-4146 -2308,-5571z"/>
 </g>
</svg>
